<svg xmlns="http://www.w3.org/2000/svg" viewBox="0 0 260.6 186"><path d="M260.6 116.6c0-29.7-18.7-55-44.9-65C200 20.2 167.7 0 132.4 0c-51.1 0-92.7 41.4-93 92.5C17.1 96.2 0 115.6 0 138.9c0 26 21.1 47.1 47.1 47.1h144.1c38.3 0 69.4-31.2 69.4-69.4zM15 138.9c0-17.7 14.4-32.1 32.1-32.1H157c-7.9 8.4-12.7 19.7-12.7 32.1 0 11.6 4.2 22.7 11.9 31.3.2.3.5.5.8.8H47.1c-17.7.1-32.1-14.3-32.1-32.1zm176.1 32.2h-1c-8.8-.4-16.8-4.2-22.7-10.7-5.2-5.9-8.1-13.5-8.1-21.3 0-17.7 14.4-32.1 32.1-32.1 1.2 0 2.3.1 3.3.2 4.1.5 7.8-2.5 8.3-6.6s-2.5-7.8-6.6-8.3c-1.6-.2-142.1-.3-142.1-.3.7-42.5 35.4-76.8 78-76.8 25.2 0 48.7 12.3 63.2 32.3-1.5-.1-2.9-.2-4.4-.2-7.7 0-15.3 1.3-22.6 3.8-3.9 1.3-6 5.6-4.7 9.5s5.6 6 9.5 4.7c5.7-2 11.6-2.9 17.7-2.9 30 0 54.5 24.4 54.5 54.5.1 29.7-24.3 54.2-54.4 54.2z" fill="#3fc6f1"/></svg>