<svg version="1.1" id="Слой_8" xmlns="http://www.w3.org/2000/svg" x="0" y="0" viewBox="0 0 678.4 186.1" xml:space="preserve"><style>.st0{fill:#fff}</style><path class="st0" d="M352.5 162.1c-16.9 0-30.6-5.3-40.8-15.6-10.2-10.4-15.3-23.8-15.3-39.9 0-15.7 5.3-28.9 15.8-39.3 10.5-10.4 24-15.7 40.3-15.7 7.5 0 14.8 1.3 21.9 3.8 6.8 2.4 12.7 6 17.6 10.7l-11.3 18.4c-3.5-3-7.6-5.4-12.2-7.4-5-2.1-10-3.2-14.8-3.2-10.4 0-18.4 3.2-23.8 9.4-5.3 6.2-8 13.8-8 22.7 0 9 2.8 17 8.2 23.6 5.5 6.7 13.4 10.1 23.5 10.1 10.3 0 19.9-4.3 28.8-12.9l12.5 17.8c-11.2 11.6-25.6 17.5-42.4 17.5zM522.5 160.2l-3.4-67.3h-2l-.2.7c-2.2 7-15.3 43.7-17.3 49.1h-21.4l-17.5-49.8h-2l-3.4 67.3h-24.8l8.8-106.9h27.3l21.3 64h1.8l.2-.7c1.9-6.8 18.9-56.8 21.1-63.2h27.3l8.7 106.9h-24.5zM635.8 162.1c-16.9 0-30.6-5.3-40.8-15.6-10.2-10.4-15.3-23.8-15.3-39.9 0-15.7 5.3-28.9 15.8-39.3 10.5-10.4 24-15.7 40.3-15.7 7.5 0 14.8 1.3 21.9 3.8 6.8 2.4 12.7 6 17.6 10.7L664 84.5c-3.5-3-7.6-5.4-12.2-7.4-5-2.1-10-3.2-14.8-3.2-10.4 0-18.4 3.2-23.8 9.4-5.3 6.2-8 13.8-8 22.7 0 9 2.8 17 8.2 23.6 5.5 6.7 13.4 10.1 23.5 10.1 10.3 0 19.9-4.3 28.8-12.9l12.5 17.8c-11.2 11.6-25.6 17.5-42.4 17.5z"/><g><path d="M260.6 116.6c0-29.7-18.7-55-44.9-65C200 20.2 167.7 0 132.4 0c-51.1 0-92.7 41.4-93 92.5C17.1 96.2 0 115.6 0 138.9c0 26 21.1 47.1 47.1 47.1h144.1c38.3 0 69.4-31.2 69.4-69.4zM15 138.9c0-17.7 14.4-32.1 32.1-32.1H157c-7.9 8.4-12.7 19.7-12.7 32.1 0 11.6 4.2 22.7 11.9 31.3.2.3.5.5.8.8H47.1c-17.7.1-32.1-14.3-32.1-32.1zm176.1 32.2h-1c-8.8-.4-16.8-4.2-22.7-10.7-5.2-5.9-8.1-13.5-8.1-21.3 0-17.7 14.4-32.1 32.1-32.1 1.2 0 2.3.1 3.3.2 4.1.5 7.8-2.5 8.3-6.6s-2.5-7.8-6.6-8.3c-1.6-.2-142.1-.3-142.1-.3.7-42.5 35.4-76.8 78-76.8 25.2 0 48.7 12.3 63.2 32.3-1.5-.1-2.9-.2-4.4-.2-7.7 0-15.3 1.3-22.6 3.8-3.9 1.3-6 5.6-4.7 9.5 1.3 3.9 5.6 6 9.5 4.7 5.7-2 11.6-2.9 17.7-2.9 30 0 54.5 24.4 54.5 54.5.1 29.7-24.3 54.2-54.4 54.2z" fill="#3fc6f1"/></g></svg>