<?xml version="1.0" encoding="utf-8"?>
<!-- Generator: Adobe Illustrator 21.0.0, SVG Export Plug-In . SVG Version: 6.00 Build 0)  -->
<svg version="1.1" id="Layer_1" xmlns="http://www.w3.org/2000/svg" xmlns:xlink="http://www.w3.org/1999/xlink" x="0px" y="0px"
	 viewBox="0 0 25.5 25.5" style="enable-background:new 0 0 25.5 25.5;" xml:space="preserve">
<path d="M3.2,18.3c-0.4,0-0.8-0.3-0.8-0.8V7.2c0-0.4,0.3-0.8,0.8-0.8s0.8,0.3,0.8,0.8v10.4
	C3.9,18,3.6,18.3,3.2,18.3z"/>
<path d="M22.4,18.3c-0.4,0-0.8-0.3-0.8-0.8V7.2c0-0.4,0.3-0.8,0.8-0.8s0.8,0.3,0.8,0.8v10.4
	C23.1,18,22.8,18.3,22.4,18.3z"/>
<path d="M0.8,9.5c-0.2,0-0.5-0.1-0.6-0.3c-0.2-0.3-0.1-0.8,0.2-1l12-8c0.3-0.2,0.8-0.1,1,0.2
	c0.2,0.3,0.1,0.8-0.2,1l-12,8C1,9.5,0.9,9.5,0.8,9.5z"/>
<path d="M24.7,9.5c-0.1,0-0.3,0-0.4-0.1l-12-8c-0.3-0.2-0.4-0.7-0.2-1c0.2-0.3,0.7-0.4,1-0.2l12,8
	c0.3,0.2,0.4,0.7,0.2,1C25.2,9.4,25,9.5,24.7,9.5z"/>
<path d="M8,15.9c-0.4,0-0.8-0.3-0.8-0.8v-4.8c0-0.4,0.3-0.8,0.8-0.8c0.4,0,0.8,0.3,0.8,0.8v4.8
	C8.7,15.6,8.4,15.9,8,15.9z"/>
<path d="M12.8,15.9c-0.4,0-0.8-0.3-0.8-0.8v-4.8c0-0.4,0.3-0.8,0.8-0.8c0.4,0,0.8,0.3,0.8,0.8v4.8
	C13.5,15.6,13.2,15.9,12.8,15.9z"/>
<path d="M17.6,15.9c-0.4,0-0.8-0.3-0.8-0.8v-4.8c0-0.4,0.3-0.8,0.8-0.8s0.8,0.3,0.8,0.8v4.8
	C18.3,15.6,18,15.9,17.6,15.9z"/>
<path d="M9.2,25.5c-0.2,0-0.4-0.1-0.5-0.2c-0.3-0.3-0.3-0.8,0-1.1l2.4-2.4c0.3-0.3,0.8-0.3,1.1,0
	s0.3,0.8,0,1.1l-2.4,2.4C9.5,25.4,9.3,25.5,9.2,25.5z"/>
<path d="M11.6,23.1c-0.2,0-0.4-0.1-0.5-0.2l-2.4-2.4c-0.3-0.3-0.3-0.8,0-1.1s0.8-0.3,1.1,0l2.4,2.4
	c0.3,0.3,0.3,0.8,0,1.1C11.9,23,11.7,23.1,11.6,23.1z"/>
<path d="M11.6,23.1H1.9c-0.4,0-0.8-0.3-0.8-0.8s0.3-0.8,0.8-0.8h9.6c0.4,0,0.8,0.3,0.8,0.8S12,23.1,11.6,23.1
	z"/>
<path d="M23.6,23.1h-7.2c-0.4,0-0.8-0.3-0.8-0.8s0.3-0.8,0.8-0.8h7.2c0.4,0,0.8,0.3,0.8,0.8
	S24,23.1,23.6,23.1z"/>
</svg>
