<?xml version="1.0" encoding="utf-8"?>
<!-- Generator: Adobe Illustrator 21.0.0, SVG Export Plug-In . SVG Version: 6.00 Build 0)  -->
<svg version="1.1" id="Icons" xmlns="http://www.w3.org/2000/svg" xmlns:xlink="http://www.w3.org/1999/xlink" x="0px" y="0px"
	 viewBox="0 0 23.5 23.5" style="enable-background:new 0 0 23.5 23.5;" xml:space="preserve">
<g>
	<g>
		<g>
			<g>
				<path d="M11.7,23.5c-1.9,0-3.5-1.6-3.5-3.5v-0.5c0-0.4,0.3-0.8,0.8-0.8s0.8,0.3,0.8,0.8V20
					c0,1.1,0.9,2,2,2s2-0.9,2-2v-0.5c0-0.4,0.3-0.8,0.8-0.8s0.8,0.3,0.8,0.8V20C15.2,21.9,13.7,23.5,11.7,23.5z"/>
				<path d="M13.9,4.7c-0.4,0-0.7-0.3-0.7-0.7V2.5c0-0.6-0.5-1.1-1.1-1.1h-0.8c-0.6,0-1.1,0.5-1.1,1.1V4
					c0,0.4-0.3,0.7-0.7,0.7S8.8,4.4,8.8,4V2.5C8.8,1.1,9.9,0,11.3,0h0.8c1.4,0,2.5,1.1,2.5,2.5V4C14.7,4.4,14.3,4.7,13.9,4.7z"/>
				<path d="M18.3,10.3c-0.4,0-0.8-0.3-0.8-0.8c0-2.6-2.1-4.7-4.8-4.7h-2.2C8,4.8,5.9,6.9,5.9,9.5
					c0,0.4-0.3,0.8-0.8,0.8S4.4,9.9,4.4,9.5c0-3.4,2.8-6.3,6.2-6.3h2.2c3.4,0,6.3,2.8,6.3,6.3C19.1,9.9,18.7,10.3,18.3,10.3z"/>
			</g>
		</g>
		<path d="M19.3,20.2H4.1c-1.1,0-1.9-0.9-1.9-2V17c0-0.8,0.3-1.5,0.9-2.1l0.9-0.9c0.3-0.3,0.5-0.7,0.5-1.2
			V9.5c0-0.4,0.3-0.8,0.8-0.8s0.8,0.3,0.8,0.8v3.4c0,0.8-0.3,1.6-0.9,2.2L4.1,16c-0.3,0.3-0.4,0.6-0.4,1v1.2c0,0.2,0.2,0.5,0.4,0.5
			h15.2c0.2,0,0.4-0.2,0.4-0.5V17c0-0.4-0.2-0.8-0.4-1l-0.9-0.9c-0.6-0.6-0.9-1.4-0.9-2.2V9.5c0-0.4,0.3-0.8,0.8-0.8
			s0.8,0.3,0.8,0.8v3.4c0,0.4,0.2,0.9,0.5,1.2l0.9,0.9c0.6,0.6,0.9,1.3,0.9,2.1v1.2C21.3,19.3,20.4,20.2,19.3,20.2z"/>
	</g>
</g>
</svg>
