<?xml version="1.0" encoding="utf-8"?>
<!-- Generator: Adobe Illustrator 21.0.0, SVG Export Plug-In . SVG Version: 6.00 Build 0)  -->
<svg version="1.1" id="Layer_1" xmlns="http://www.w3.org/2000/svg" xmlns:xlink="http://www.w3.org/1999/xlink" x="0px" y="0px"
	 viewBox="0 0 19.5 19.5" style="enable-background:new 0 0 19.5 19.5;" xml:space="preserve">
<g>
	<path d="M4.7,19c-0.3,0-0.6-0.2-0.7-0.5c-0.2-0.4,0-0.8,0.4-1l2.5-1c0.4-0.2,0.8,0,1,0.4
		c0.2,0.4,0,0.8-0.4,1l-2.5,1C4.9,19,4.8,19,4.7,19z"/>
	<path d="M9.7,19c-0.1,0-0.2,0-0.3-0.1l-2.5-1c-0.4-0.2-0.6-0.6-0.4-1c0.2-0.4,0.6-0.6,1-0.4l2.5,1
		c0.4,0.2,0.6,0.6,0.4,1C10.3,18.8,10,19,9.7,19z"/>
	<path d="M9.7,19c-0.3,0-0.6-0.2-0.7-0.5c-0.2-0.4,0-0.8,0.4-1l2.5-1c0.4-0.2,0.8,0,1,0.4
		c0.2,0.4,0,0.8-0.4,1l-2.5,1C9.9,19,9.8,19,9.7,19z"/>
	<path d="M14.8,19c-0.1,0-0.2,0-0.3-0.1l-2.5-1c-0.4-0.2-0.6-0.6-0.4-1c0.2-0.4,0.6-0.6,1-0.4l2.5,1
		c0.4,0.2,0.6,0.6,0.4,1C15.3,18.8,15,19,14.8,19z"/>
	<path d="M14.8,19c-0.4,0-0.8-0.3-0.8-0.8V6H5.5v12.3c0,0.4-0.3,0.8-0.8,0.8S4,18.7,4,18.3v-13
		c0-0.4,0.3-0.8,0.8-0.8h10c0.4,0,0.8,0.3,0.8,0.8v13C15.5,18.7,15.2,19,14.8,19z"/>
</g>
<path d="M11.8,9h-4C7.3,9,7,8.7,7,8.3s0.3-0.8,0.8-0.8h4c0.4,0,0.8,0.3,0.8,0.8S12.2,9,11.8,9z"/>
<path d="M11.8,12h-4C7.3,12,7,11.7,7,11.3s0.3-0.8,0.8-0.8h4c0.4,0,0.8,0.3,0.8,0.8S12.2,12,11.8,12z"/>
<path d="M10.1,15H7.7C7.3,15,7,14.7,7,14.3s0.3-0.8,0.8-0.8h2.4c0.4,0,0.8,0.3,0.8,0.8S10.6,15,10.1,15z"/>
<g>
	<path d="M16.8,10C16.3,10,16,9.7,16,9.3s0.3-0.8,0.8-0.8C17.4,8.5,18,7.8,18,7V3.5C18,2.7,17.4,2,16.8,2h-14
		C2.1,2,1.5,2.7,1.5,3.5V7c0,0.8,0.6,1.5,1.3,1.5c0.4,0,0.8,0.3,0.8,0.8S3.2,10,2.7,10C1.2,10,0,8.6,0,7V3.5c0-1.7,1.2-3,2.8-3h14
		c1.5,0,2.8,1.4,2.8,3V7C19.5,8.6,18.3,10,16.8,10z"/>
	<path d="M4.7,10h-2C2.3,10,2,9.7,2,9.3s0.3-0.8,0.8-0.8h2c0.4,0,0.8,0.3,0.8,0.8S5.2,10,4.7,10z"/>
	<path d="M16.8,10h-2C14.3,10,14,9.7,14,9.3s0.3-0.8,0.8-0.8h2c0.4,0,0.8,0.3,0.8,0.8S17.2,10,16.8,10z"/>
</g>
</svg>
