<?xml version="1.0" encoding="utf-8"?>
<!-- Generator: Adobe Illustrator 21.0.0, SVG Export Plug-In . SVG Version: 6.00 Build 0)  -->
<svg version="1.1" id="Layer_1" xmlns="http://www.w3.org/2000/svg" xmlns:xlink="http://www.w3.org/1999/xlink" x="0px" y="0px"
	 viewBox="0 0 19.5 19.5" style="enable-background:new 0 0 19.5 19.5;" xml:space="preserve">
<g>
	<path d="M14.8,19.5h-10c-1.5,0-2.8-1.2-2.8-2.8v-14C2,1.2,3.2,0,4.8,0h7.2c0.7,0,1.4,0.3,1.9,0.8l2.8,2.8
		c0.5,0.5,0.8,1.2,0.8,1.9v11.2C17.5,18.3,16.3,19.5,14.8,19.5z M4.8,1.5c-0.7,0-1.3,0.6-1.3,1.3v14c0,0.7,0.6,1.3,1.3,1.3h10
		c0.7,0,1.3-0.6,1.3-1.3V5.6c0-0.3-0.1-0.7-0.4-0.9l-2.8-2.8c-0.2-0.2-0.6-0.4-0.9-0.4H4.8z"/>
	<path d="M16.8,6.5h-4c-1,0-1.8-0.8-1.8-1.8v-4C11,0.3,11.3,0,11.8,0s0.8,0.3,0.8,0.8v4
		c0,0.1,0.1,0.3,0.3,0.3h4c0.4,0,0.8,0.3,0.8,0.8S17.2,6.5,16.8,6.5z"/>
	<path d="M11.8,9.5h-6C5.3,9.5,5,9.2,5,8.8S5.3,8,5.8,8h6c0.4,0,0.8,0.3,0.8,0.8S12.2,9.5,11.8,9.5z"/>
	<path d="M11.8,12.5h-6c-0.4,0-0.8-0.3-0.8-0.8S5.3,11,5.8,11h6c0.4,0,0.8,0.3,0.8,0.8S12.2,12.5,11.8,12.5z"
		/>
	<path d="M10.1,15.5H5.8c-0.4,0-0.8-0.3-0.8-0.8S5.3,14,5.8,14h4.3c0.4,0,0.8,0.3,0.8,0.8
		S10.5,15.5,10.1,15.5z"/>
</g>
</svg>
