<?xml version="1.0" encoding="utf-8"?>
<!-- Generator: Adobe Illustrator 21.0.0, SVG Export Plug-In . SVG Version: 6.00 Build 0)  -->
<svg version="1.1" id="Layer_1" xmlns="http://www.w3.org/2000/svg" xmlns:xlink="http://www.w3.org/1999/xlink" x="0px" y="0px"
	 viewBox="0 0 21.7 21.7" style="enable-background:new 0 0 21.7 21.7;" xml:space="preserve">
<g>
	<path d="M10.8,21.7c-0.5,0-1-0.1-1.4-0.4l-7-4c-0.8-0.5-1.4-1.4-1.4-2.4V6.8c0-1,0.5-1.9,1.4-2.4l7-4
		c0.8-0.5,1.9-0.5,2.8,0l7,4c0.8,0.5,1.4,1.4,1.4,2.4v8.1c0,1-0.5,1.9-1.4,2.4l-7,4C11.8,21.5,11.3,21.7,10.8,21.7z M10.8,1.5
		c-0.2,0-0.4,0.1-0.6,0.2l-7,4C2.8,5.9,2.6,6.3,2.6,6.8v8.1c0,0.4,0.2,0.9,0.6,1.1l7,4c0.4,0.2,0.9,0.2,1.3,0l7-4
		c0.4-0.2,0.6-0.6,0.6-1.1V6.8c0-0.4-0.2-0.9-0.6-1.1l-7-4C11.3,1.6,11,1.5,10.8,1.5z"/>
	<path d="M10.8,11.6c-0.1,0-0.3,0-0.4-0.1l-8.7-5c-0.4-0.2-0.5-0.7-0.3-1c0.2-0.4,0.7-0.5,1-0.3l8.7,5
		c0.4,0.2,0.5,0.7,0.3,1C11.3,11.4,11.1,11.6,10.8,11.6z"/>
	<path d="M10.8,21.7c-0.4,0-0.8-0.3-0.8-0.8V10.8c0-0.4,0.3-0.8,0.8-0.8s0.8,0.3,0.8,0.8v10.1
		C11.6,21.3,11.2,21.7,10.8,21.7z"/>
	<path d="M10.8,11.6c-0.3,0-0.5-0.1-0.7-0.4c-0.2-0.4-0.1-0.8,0.3-1l8.7-5c0.4-0.2,0.8-0.1,1,0.3
		c0.2,0.4,0.1,0.8-0.3,1l-8.7,5C11.1,11.5,11,11.6,10.8,11.6z"/>
	<path d="M15.3,9c-0.1,0-0.3,0-0.4-0.1L6,3.7C5.6,3.5,5.5,3,5.7,2.7c0.2-0.4,0.7-0.5,1-0.3l9,5.2
		c0.4,0.2,0.5,0.7,0.3,1C15.8,8.8,15.6,9,15.3,9z"/>
	<path d="M15.3,12.4c-0.4,0-0.8-0.3-0.8-0.8V8.2c0-0.4,0.3-0.8,0.8-0.8s0.8,0.3,0.8,0.8v3.5
		C16.1,12.1,15.7,12.4,15.3,12.4z"/>
	<path d="M7.9,16.6c-0.1,0-0.3,0-0.4-0.1l-3-1.8c-0.4-0.2-0.5-0.7-0.3-1s0.7-0.5,1-0.3l3,1.8
		c0.4,0.2,0.5,0.7,0.3,1C8.4,16.4,8.1,16.6,7.9,16.6z"/>
</g>
</svg>
