<?xml version="1.0" encoding="utf-8"?>
<!-- Generator: Adobe Illustrator 21.0.0, SVG Export Plug-In . SVG Version: 6.00 Build 0)  -->
<svg version="1.1" id="Layer_1" xmlns="http://www.w3.org/2000/svg" xmlns:xlink="http://www.w3.org/1999/xlink" x="0px" y="0px"
	 viewBox="0 0 19.5 19.5" style="enable-background:new 0 0 19.5 19.5;" xml:space="preserve">
<path d="M14.8,10.5h-10C4.3,10.5,4,10.2,4,9.8S4.3,9,4.8,9h10c0.4,0,0.8,0.3,0.8,0.8S15.2,10.5,14.8,10.5z"/>
<path d="M14.8,13.5h-10c-0.4,0-0.8-0.3-0.8-0.8S4.3,12,4.8,12h10c0.4,0,0.8,0.3,0.8,0.8S15.2,13.5,14.8,13.5z
	"/>
<path d="M14.8,16.5h-10c-0.4,0-0.8-0.3-0.8-0.8S4.3,15,4.8,15h10c0.4,0,0.8,0.3,0.8,0.8S15.2,16.5,14.8,16.5z
	"/>
<g>
	<path d="M14.8,19.5h-10c-0.4,0-0.8-0.3-0.8-0.8S4.3,18,4.8,18h10c0.4,0,0.8,0.3,0.8,0.8S15.2,19.5,14.8,19.5
		z"/>
	<path d="M0.8,6.5c-0.3,0-0.5-0.1-0.7-0.4c-0.2-0.4-0.1-0.8,0.3-1l9-5c0.4-0.2,0.8-0.1,1,0.3
		c0.2,0.4,0.1,0.8-0.3,1l-9,5C1,6.5,0.9,6.5,0.8,6.5z"/>
	<path d="M0.8,19.5c-0.4,0-0.8-0.3-0.8-0.8v-13C0,5.3,0.3,5,0.8,5s0.8,0.3,0.8,0.8v13
		C1.5,19.2,1.2,19.5,0.8,19.5z"/>
	<path d="M18.7,6.5c-0.1,0-0.2,0-0.4-0.1l-9-5C9,1.2,8.9,0.7,9.1,0.4c0.2-0.4,0.7-0.5,1-0.3l9,5
		c0.4,0.2,0.5,0.7,0.3,1C19.3,6.4,19,6.5,18.7,6.5z"/>
	<path d="M18.8,19.5c-0.4,0-0.8-0.3-0.8-0.8v-13C18,5.3,18.3,5,18.8,5s0.8,0.3,0.8,0.8v13
		C19.5,19.2,19.2,19.5,18.8,19.5z"/>
	<path d="M4.8,19.5c-0.4,0-0.8-0.3-0.8-0.8v-9C4,9.3,4.3,9,4.8,9s0.8,0.3,0.8,0.8v9
		C5.5,19.2,5.2,19.5,4.8,19.5z"/>
	<path d="M14.8,19.5c-0.4,0-0.8-0.3-0.8-0.8v-9C14,9.3,14.3,9,14.8,9s0.8,0.3,0.8,0.8v9
		C15.5,19.2,15.2,19.5,14.8,19.5z"/>
</g>
<path d="M11.8,7.5h-4C7.3,7.5,7,7.2,7,6.8S7.3,6,7.8,6h4c0.4,0,0.8,0.3,0.8,0.8S12.2,7.5,11.8,7.5z"/>
<path d="M18.8,19.5h-18c-0.4,0-0.8-0.3-0.8-0.8S0.3,18,0.8,18h18c0.4,0,0.8,0.3,0.8,0.8S19.2,19.5,18.8,19.5z
	"/>
</svg>
