<?xml version="1.0" encoding="utf-8"?>
<!-- Generator: Adobe Illustrator 21.0.0, SVG Export Plug-In . SVG Version: 6.00 Build 0)  -->
<svg version="1.1" id="Layer_1" xmlns="http://www.w3.org/2000/svg" xmlns:xlink="http://www.w3.org/1999/xlink" x="0px" y="0px"
	 viewBox="0 0 20.1 20.1" style="enable-background:new 0 0 20.1 20.1;" xml:space="preserve">
<g>
	<path d="M5.5,19.4h-2c-1.5,0-2.8-1.3-2.8-2.9V2.9C0.8,1.3,2,0,3.5,0h12c1.5,0,2.8,1.3,2.8,2.9v8.9
		c0,0.4-0.3,0.8-0.8,0.8s-0.8-0.3-0.8-0.8V2.9c0-0.8-0.6-1.4-1.3-1.4h-12c-0.7,0-1.3,0.6-1.3,1.4v13.7c0,0.8,0.6,1.4,1.3,1.4h2
		c0.4,0,0.8,0.3,0.8,0.8S5.9,19.4,5.5,19.4z"/>
	<path d="M10.6,20.1c-0.7,0-1.4-0.3-2-0.8c-1.1-1.1-1.1-2.9,0-4c1.1-1.1,2.9-1.1,4,0c0.3,0.3,0.3,0.8,0,1.1
		c-0.3,0.3-0.8,0.3-1.1,0c-0.5-0.5-1.4-0.5-1.9,0c-0.5,0.5-0.5,1.4,0,1.9c0.5,0.5,1.4,0.5,1.9,0c0.3-0.3,0.8-0.3,1.1,0
		s0.3,0.8,0,1.1C12.1,19.8,11.3,20.1,10.6,20.1z"/>
	<path d="M13.5,18c-0.2,0-0.4-0.1-0.5-0.2l-1.5-1.5c-0.3-0.3-0.3-0.8,0-1.1c0.3-0.3,0.8-0.3,1.1,0l1.5,1.5
		c0.3,0.3,0.3,0.8,0,1.1C13.9,17.9,13.7,18,13.5,18z"/>
	<path d="M12.1,19.5c-0.2,0-0.4-0.1-0.5-0.2c-0.3-0.3-0.3-0.8,0-1.1l1.5-1.5c0.3-0.3,0.8-0.3,1.1,0
		s0.3,0.8,0,1.1l-1.5,1.5C12.5,19.4,12.3,19.5,12.1,19.5z"/>
	<path d="M16.5,20.1c-0.7,0-1.4-0.3-2-0.8c-0.3-0.3-0.3-0.8,0-1.1s0.8-0.3,1.1,0c0.5,0.5,1.4,0.5,1.9,0
		c0.5-0.5,0.5-1.4,0-1.9c-0.5-0.5-1.4-0.5-1.9,0c-0.3,0.3-0.8,0.3-1.1,0c-0.3-0.3-0.3-0.8,0-1.1c1.1-1.1,2.9-1.1,4,0
		c1.1,1.1,1.1,2.9,0,4C17.9,19.8,17.2,20.1,16.5,20.1z"/>
	<path d="M15,19.5c-0.2,0-0.4-0.1-0.5-0.2L13,17.8c-0.3-0.3-0.3-0.8,0-1.1s0.8-0.3,1.1,0l1.5,1.5
		c0.3,0.3,0.3,0.8,0,1.1C15.4,19.4,15.2,19.5,15,19.5z"/>
	<path d="M13.5,18c-0.2,0-0.4-0.1-0.5-0.2c-0.3-0.3-0.3-0.8,0-1.1l1.5-1.5c0.3-0.3,0.8-0.3,1.1,0
		c0.3,0.3,0.3,0.8,0,1.1l-1.5,1.5C13.9,17.9,13.7,18,13.5,18z"/>
	<path d="M13.5,5.5h-8c-0.4,0-0.8-0.3-0.8-0.8S5.1,4,5.5,4h8c0.4,0,0.8,0.3,0.8,0.7S13.9,5.5,13.5,5.5z"/>
	<path d="M13.5,9h-8C5.1,9,4.8,8.7,4.8,8.2s0.3-0.8,0.8-0.8h8c0.4,0,0.8,0.3,0.8,0.8S13.9,9,13.5,9z"/>
	<path d="M10.5,12.5h-5c-0.4,0-0.8-0.3-0.8-0.8S5.1,11,5.5,11h5c0.4,0,0.8,0.3,0.8,0.8S10.9,12.5,10.5,12.5z"
		/>
</g>
</svg>
