<?xml version="1.0" encoding="utf-8"?>
<!-- Generator: Adobe Illustrator 21.0.0, SVG Export Plug-In . SVG Version: 6.00 Build 0)  -->
<svg version="1.1" id="Icons" xmlns="http://www.w3.org/2000/svg" xmlns:xlink="http://www.w3.org/1999/xlink" x="0px" y="0px"
	 viewBox="0 0 15.5 15.5" style="enable-background:new 0 0 15.5 15.5;" xml:space="preserve">
<path d="M5.4,15.5c-0.2,0-0.4-0.1-0.6-0.3c-0.3-0.3-0.2-0.8,0.1-1.1L8.8,11c0.3-0.3,0.8-0.2,1.1,0.1
	c0.3,0.3,0.2,0.8-0.1,1.1l-3.9,3.1C5.7,15.4,5.6,15.5,5.4,15.5z"/>
<path d="M5.4,15.5c-0.4,0-0.8-0.3-0.8-0.8v-3.1c0-0.4,0.3-0.8,0.8-0.8s0.8,0.3,0.8,0.8v3.1
	C6.2,15.2,5.8,15.5,5.4,15.5z"/>
<path d="M10.1,12.4H9.3c-0.4,0-0.8-0.3-0.8-0.8s0.3-0.8,0.8-0.8h0.8c2.2,0,3.9-1.8,3.9-3.9V5.4
	c0-2.2-1.8-3.9-3.9-3.9H5.4c-2.2,0-3.9,1.8-3.9,3.9V7c0,2.2,1.8,3.9,3.9,3.9c0.4,0,0.8,0.3,0.8,0.8s-0.3,0.8-0.8,0.8
	C2.4,12.4,0,10,0,7V5.4C0,2.4,2.4,0,5.4,0h4.7c3,0,5.4,2.4,5.4,5.4V7C15.5,10,13.1,12.4,10.1,12.4z"/>
</svg>
