<?xml version="1.0" encoding="utf-8"?>
<!-- Generator: Adobe Illustrator 21.0.0, SVG Export Plug-In . SVG Version: 6.00 Build 0)  -->
<svg version="1.1" id="Icons" xmlns="http://www.w3.org/2000/svg" xmlns:xlink="http://www.w3.org/1999/xlink" x="0px" y="0px"
	 viewBox="0 0 23.5 23.5" style="enable-background:new 0 0 23.5 23.5;" xml:space="preserve">
<g>
	<path d="M10.6,23.5c-0.1,0-0.3,0-0.4-0.1C10,23.2,9.9,23,9.9,22.8v-2.8c-5.1-0.6-8.8-4.7-8.8-9.9
		c0-5.5,4.8-10,10.6-10c5.9,0,10.7,4.5,10.7,10c0,7.2-7.2,11.5-11.4,13.4C10.9,23.5,10.8,23.5,10.6,23.5z M11.7,1.5
		c-5,0-9.1,3.8-9.1,8.5c0,4.7,3.4,8.3,8.1,8.5c0.4,0,0.7,0.3,0.7,0.7v2.3c4-2,9.5-5.7,9.5-11.6C20.9,5.3,16.8,1.5,11.7,1.5z"/>
</g>
</svg>
