<?xml version="1.0" encoding="utf-8"?>
<!-- Generator: Adobe Illustrator 21.0.0, SVG Export Plug-In . SVG Version: 6.00 Build 0)  -->
<svg version="1.1" id="Layer_1" xmlns="http://www.w3.org/2000/svg" xmlns:xlink="http://www.w3.org/1999/xlink" x="0px" y="0px"
	 viewBox="0 0 19.5 19.5" style="enable-background:new 0 0 19.5 19.5;" xml:space="preserve">
<path d="M9.8,19.5C4.4,19.5,0,15.1,0,9.8S4.4,0,9.8,0s9.8,4.4,9.8,9.8S15.1,19.5,9.8,19.5z M9.8,1.5
	c-4.5,0-8.3,3.7-8.3,8.3S5.2,18,9.8,18S18,14.3,18,9.8S14.3,1.5,9.8,1.5z"/>
<path d="M9.5,11.6c-0.4,0-0.8-0.3-0.8-0.8V4.5c0-0.4,0.3-0.8,0.8-0.8s0.8,0.3,0.8,0.8v6.3
	C10.2,11.2,9.9,11.6,9.5,11.6z"/>
<path d="M14.4,14.5c-0.1,0-0.3,0-0.4-0.1l-4.9-2.9c-0.4-0.2-0.5-0.7-0.3-1s0.7-0.5,1-0.3l4.9,2.9
	c0.4,0.2,0.5,0.7,0.3,1C14.9,14.4,14.6,14.5,14.4,14.5z"/>
</svg>
