<?xml version="1.0" encoding="utf-8"?>
<!-- Generator: Adobe Illustrator 21.0.0, SVG Export Plug-In . SVG Version: 6.00 Build 0)  -->
<svg version="1.1" id="Layer_1" xmlns="http://www.w3.org/2000/svg" xmlns:xlink="http://www.w3.org/1999/xlink" x="0px" y="0px"
	 viewBox="0 0 6.1 6.1" style="enable-background:new 0 0 6.1 6.1;" xml:space="preserve">
<path d="M5.6,6.1c-0.1,0-0.3,0-0.4-0.1L0.1,0.9C0,0.7,0,0.3,0.1,0.1s0.5-0.2,0.7,0L6,5.3C6.2,5.5,6.2,5.8,6,6
	C5.9,6.1,5.8,6.1,5.6,6.1z"/>
<path d="M0.5,6.1c-0.1,0-0.3,0-0.4-0.1C0,5.8,0,5.5,0.1,5.3l5.1-5.1C5.5,0,5.8,0,6,0.1s0.2,0.5,0,0.7L0.9,6
	C0.8,6.1,0.6,6.1,0.5,6.1z"/>
</svg>
