<?xml version="1.0" encoding="utf-8"?>
<!-- Generator: Adobe Illustrator 21.0.0, SVG Export Plug-In . SVG Version: 6.00 Build 0)  -->
<svg version="1.1" id="Layer_1" xmlns="http://www.w3.org/2000/svg" xmlns:xlink="http://www.w3.org/1999/xlink" x="0px" y="0px"
	 viewBox="0 0 19.5 19.5" style="enable-background:new 0 0 19.5 19.5;" xml:space="preserve">
<path d="M6.9,13.3c-0.2,0-0.4-0.1-0.5-0.2c-0.3-0.3-0.3-0.8,0-1.1L12,6.4c0.3-0.3,0.8-0.3,1.1,0
	s0.3,0.8,0,1.1l-5.7,5.7C7.3,13.3,7.1,13.3,6.9,13.3z"/>
<path d="M12.6,13.3c-0.2,0-0.4-0.1-0.5-0.2L6.4,7.5c-0.3-0.3-0.3-0.8,0-1.1s0.8-0.3,1.1,0l5.7,5.7
	c0.3,0.3,0.3,0.8,0,1.1C13,13.3,12.8,13.3,12.6,13.3z"/>
<g>
	<path d="M9.8,19.5C4.4,19.5,0,15.1,0,9.8S4.4,0,9.8,0s9.8,4.4,9.8,9.8S15.1,19.5,9.8,19.5z M9.8,1.5
		c-4.5,0-8.3,3.7-8.3,8.3S5.2,18,9.8,18S18,14.3,18,9.8S14.3,1.5,9.8,1.5z"/>
</g>
</svg>
