<?xml version="1.0" encoding="utf-8"?>
<!-- Generator: Adobe Illustrator 21.0.0, SVG Export Plug-In . SVG Version: 6.00 Build 0)  -->
<svg version="1.1" id="Icons" xmlns="http://www.w3.org/2000/svg" xmlns:xlink="http://www.w3.org/1999/xlink" x="0px" y="0px"
	 viewBox="0 0 23.5 23.5" style="enable-background:new 0 0 23.5 23.5;" xml:space="preserve">
<path d="M22.3,13.8l-1.6-1.3c0-0.3,0-0.5,0-0.7c0-0.2,0-0.5,0-0.7l1.6-1.3c0.7-0.6,0.9-1.6,0.5-2.4l-1.7-3
	c-0.5-0.8-1.4-1.1-2.3-0.8L17,4.3c-0.1,0.1-0.3,0-0.3-0.1c-0.3-0.2-0.6-0.4-0.9-0.5c-0.1,0-0.2-0.1-0.2-0.3l-0.3-1.8
	C15.2,0.7,14.4,0,13.5,0H10C9.1,0,8.3,0.7,8.2,1.6L7.9,3.4c0,0.2-0.2,0.2-0.2,0.3C7.4,3.9,7.1,4,6.8,4.2C6.7,4.3,6.6,4.3,6.5,4.3
	L4.7,3.6c-0.8-0.3-1.8,0-2.3,0.8l-1.7,3C0.3,8.2,0.5,9.2,1.2,9.7L2.8,11c0,0.3,0,0.5,0,0.7c0,0.2,0,0.5,0,0.7l-1.6,1.3
	c-0.7,0.6-0.9,1.6-0.5,2.4l1.7,3c0.5,0.8,1.4,1.1,2.3,0.8l1.7-0.7c0.1,0,0.2,0,0.3,0.1c0.3,0.2,0.6,0.4,0.9,0.5
	c0.1,0,0.2,0.1,0.2,0.3l0.3,1.8c0.1,0.9,0.9,1.6,1.8,1.6h3.4c0.9,0,1.7-0.7,1.8-1.6l0.3-1.8c0-0.2,0.2-0.2,0.2-0.3
	c0.3-0.2,0.6-0.3,0.9-0.5c0.1,0,0.2-0.1,0.3-0.1l1.7,0.7c0.8,0.3,1.8,0,2.3-0.8l1.7-3C23.2,15.3,23,14.3,22.3,13.8z M15.8,11.8
	c0,2.2-1.8,4-4,4s-4-1.8-4-4s1.8-4,4-4S15.8,9.5,15.8,11.8z"/>
</svg>
