<?xml version="1.0" encoding="utf-8"?>
<!-- Generator: Adobe Illustrator 21.0.0, SVG Export Plug-In . SVG Version: 6.00 Build 0)  -->
<svg version="1.1" id="Icons" xmlns="http://www.w3.org/2000/svg" xmlns:xlink="http://www.w3.org/1999/xlink" x="0px" y="0px"
	 viewBox="0 0 23.5 23.5" style="enable-background:new 0 0 23.5 23.5;" xml:space="preserve">
<g>
	<g>
		<path d="M15,12.5c-0.4,0-0.8-0.3-0.8-0.8c0-1.4-1.1-2.5-2.5-2.5s-2.5,1.1-2.5,2.5c0,0.4-0.3,0.8-0.8,0.8
			s-0.7-0.3-0.7-0.8c0-2.2,1.8-4,4-4s4,1.8,4,4C15.8,12.2,15.5,12.5,15,12.5z"/>
		<path d="M15,12.5c-0.4,0-0.8-0.3-0.8-0.8c0-1.4-1.1-2.5-2.5-2.5s-2.5,1.1-2.5,2.5c0,0.4-0.3,0.8-0.8,0.8
			s-0.7-0.3-0.7-0.8c0-2.2,1.8-4,4-4s4,1.8,4,4C15.8,12.2,15.5,12.5,15,12.5z"/>
		<path d="M11.8,15.8c-2.2,0-4-1.8-4-4.1C7.7,11.3,8,11,8.5,11s0.8,0.3,0.8,0.8c0,1.4,1.1,2.6,2.5,2.6
			s2.5-1.1,2.5-2.6c0-0.4,0.3-0.8,0.8-0.8s0.8,0.3,0.8,0.8C15.8,14,14,15.8,11.8,15.8z"/>
		<path d="M20,12.5c-0.4,0-0.8-0.3-0.8-0.8c0-0.3,0-0.6-0.1-1c0-0.3,0.1-0.5,0.3-0.7l1.9-1.5
			c0.1-0.1,0.2-0.3,0.1-0.4l-1.7-3C19.7,5,19.5,4.9,19.3,5l-1.7,0.7c-0.6,0.2-1.2,0.2-1.7-0.2c-0.2-0.2-0.5-0.3-0.8-0.4
			c-0.6-0.3-0.9-0.8-1-1.4l-0.3-1.8c0-0.2-0.2-0.3-0.3-0.3H10c-0.2,0-0.3,0.1-0.3,0.3L9.4,3.6C9.3,4.2,9,4.8,8.4,5
			C8.1,5.2,7.9,5.3,7.6,5.5C7.1,5.8,6.5,5.9,5.9,5.7L4.2,5C4,4.9,3.8,5,3.7,5.1L2,8.1C1.9,8.3,2,8.5,2.1,8.6L4,10.1
			c0.2,0.2,0.3,0.4,0.3,0.7c0,0.4-0.1,0.7-0.1,1c0,0.4-0.3,0.8-0.8,0.8s-0.8-0.3-0.8-0.8c0-0.2,0-0.5,0-0.7L1.2,9.7
			C0.5,9.2,0.3,8.2,0.7,7.4l1.7-3c0.5-0.8,1.4-1.1,2.3-0.8l1.7,0.7c0.1,0,0.2,0,0.3-0.1C7.1,4,7.4,3.9,7.7,3.7
			c0.1,0,0.2-0.1,0.2-0.3l0.3-1.8C8.3,0.7,9.1,0,10,0h3.4c0.9,0,1.7,0.7,1.8,1.6l0.3,1.8c0,0.2,0.2,0.2,0.2,0.3
			c0.3,0.2,0.6,0.3,0.9,0.5c0.1,0,0.2,0.1,0.3,0.1l1.7-0.7c0.8-0.3,1.8,0,2.3,0.8l1.7,3c0.5,0.8,0.3,1.8-0.5,2.4L20.7,11
			c0,0.3,0,0.5,0,0.7C20.8,12.2,20.4,12.5,20,12.5z"/>
		<path d="M13.5,23.5H10c-0.9,0-1.7-0.7-1.8-1.6l-0.3-1.8c0-0.2-0.2-0.2-0.2-0.3c-0.3-0.2-0.6-0.3-0.9-0.5
			c-0.1-0.1-0.2-0.1-0.3-0.1l-1.7,0.7c-0.8,0.3-1.8,0-2.3-0.8l-1.7-3c-0.5-0.8-0.3-1.8,0.5-2.4l1.6-1.3c0-0.3,0-0.5,0-0.7
			c0-0.4,0.3-0.8,0.8-0.8s0.8,0.3,0.8,0.8c0,0.3,0,0.6,0.1,1c0,0.3-0.1,0.5-0.3,0.7l-1.9,1.5C2,15,1.9,15.2,2,15.4l1.7,3
			c0.1,0.1,0.3,0.2,0.4,0.1l1.7-0.7c0.6-0.2,1.2-0.2,1.7,0.2c0.2,0.2,0.5,0.3,0.8,0.4c0.6,0.3,0.9,0.8,1,1.4l0.3,1.9
			c0,0.2,0.2,0.3,0.3,0.3h3.4c0.2,0,0.3-0.1,0.3-0.3l0.3-1.8c0.1-0.6,0.5-1.1,1-1.4c0.3-0.1,0.5-0.3,0.8-0.4
			c0.5-0.3,1.2-0.4,1.7-0.2l1.7,0.7c0.2,0.1,0.3,0,0.4-0.1l1.7-3c0.1-0.1,0-0.3-0.1-0.4l-1.9-1.5c-0.2-0.2-0.3-0.4-0.3-0.7
			c0-0.4,0.1-0.7,0.1-1c0-0.4,0.3-0.8,0.8-0.8s0.8,0.3,0.8,0.8c0,0.2,0,0.5,0,0.7l1.6,1.3c0.7,0.6,0.9,1.6,0.5,2.4l-1.7,3
			c-0.5,0.8-1.4,1.1-2.3,0.8L17,19.2c-0.1-0.1-0.3,0-0.3,0.1c-0.3,0.2-0.6,0.4-0.9,0.5c-0.1,0-0.2,0.1-0.2,0.3l-0.3,1.8
			C15.2,22.8,14.4,23.5,13.5,23.5z"/>
	</g>
</g>
</svg>
