<?xml version="1.0" encoding="utf-8"?>
<!-- Generator: Adobe Illustrator 21.0.0, SVG Export Plug-In . SVG Version: 6.00 Build 0)  -->
<svg version="1.1" id="Layer_1" xmlns="http://www.w3.org/2000/svg" xmlns:xlink="http://www.w3.org/1999/xlink" x="0px" y="0px"
	 viewBox="0 0 21.6 21.6" style="enable-background:new 0 0 21.6 21.6;" xml:space="preserve">
<g>
	<path d="M10.8,17.7C10.8,17.7,10.8,17.7,10.8,17.7l-7,0c-1.5,0-2.7-1.3-2.7-2.9V2.9C1.1,1.3,2.3,0,3.8,0h10
		c1.5,0,2.7,1.3,2.7,2.9v9c0,0.4-0.3,0.8-0.7,0.8c-0.4,0-0.8-0.3-0.8-0.8v-9c0-0.8-0.6-1.4-1.3-1.4h-10c-0.7,0-1.3,0.6-1.3,1.4v11.9
		c0,0.8,0.6,1.4,1.2,1.4l7,0c0.4,0,0.7,0.3,0.7,0.8C11.6,17.3,11.3,17.7,10.8,17.7z"/>
	<path d="M12.8,8.6h-8c-0.4,0-0.8-0.3-0.8-0.8c0-0.4,0.3-0.8,0.8-0.8h8c0.4,0,0.8,0.3,0.8,0.8
		C13.6,8.3,13.2,8.6,12.8,8.6z"/>
	<path d="M12.8,5.7h-8c-0.4,0-0.8-0.3-0.8-0.8s0.3-0.8,0.8-0.8h8c0.4,0,0.8,0.3,0.8,0.8S13.2,5.7,12.8,5.7z"
		/>
	<path d="M9.8,11.6h-5c-0.4,0-0.8-0.3-0.8-0.8s0.3-0.8,0.8-0.8h5c0.4,0,0.8,0.3,0.8,0.8S10.2,11.6,9.8,11.6z"
		/>
	<path d="M15.3,21.6c-2.9,0-5.3-2.4-5.3-5.3s2.4-5.2,5.3-5.2s5.2,2.4,5.2,5.2S18.2,21.6,15.3,21.6z
		 M15.3,12.6c-2.1,0-3.8,1.7-3.8,3.7s1.7,3.8,3.8,3.8s3.7-1.7,3.7-3.8S17.4,12.6,15.3,12.6z"/>
	<path d="M15.8,17.6h-2c-0.4,0-0.8-0.3-0.8-0.8s0.3-0.8,0.8-0.8h2c0.4,0,0.7,0.3,0.7,0.8S16.2,17.6,15.8,17.6
		z"/>
	<path d="M15.8,17.6c-0.4,0-0.8-0.3-0.8-0.8v-2c0-0.4,0.3-0.8,0.8-0.8c0.4,0,0.7,0.3,0.7,0.8v2
		C16.6,17.3,16.2,17.6,15.8,17.6z"/>
</g>
</svg>
