<?xml version="1.0" encoding="utf-8"?>
<!-- Generator: Adobe Illustrator 21.0.0, SVG Export Plug-In . SVG Version: 6.00 Build 0)  -->
<svg version="1.1" id="Layer_1" xmlns="http://www.w3.org/2000/svg" xmlns:xlink="http://www.w3.org/1999/xlink" x="0px" y="0px"
	 viewBox="0 0 19.5 19.5" style="enable-background:new 0 0 19.5 19.5;" xml:space="preserve">
<g>
	<path d="M7.2,15.5H4.7c-0.4,0-0.8-0.3-0.8-0.8v-2.4c0-0.5,0.2-0.9,0.5-1.2L15.1,0.5c0.7-0.7,1.8-0.7,2.5,0
		L19,1.9c0,0,0,0,0,0c0.7,0.7,0.7,1.8,0,2.5L8.4,15C8.1,15.3,7.6,15.5,7.2,15.5z M5.5,14h1.7c0.1,0,0.1,0,0.2-0.1L17.9,3.3
		C18,3.2,18,3.1,17.9,3l-1.4-1.4c-0.1-0.1-0.2-0.1-0.4,0L5.6,12.2c0,0-0.1,0.1-0.1,0.2V14z"/>
	<path d="M16.7,6.4c-0.2,0-0.4-0.1-0.5-0.2l-2.8-2.8c-0.3-0.3-0.3-0.8,0-1.1c0.3-0.3,0.8-0.3,1.1,0l2.8,2.8
		c0.3,0.3,0.3,0.8,0,1.1C17,6.3,16.9,6.4,16.7,6.4z"/>
	<path d="M16.8,19.5h-14c-1.5,0-2.8-1.2-2.8-2.8v-14C0,1.2,1.2,0,2.8,0h8c0.4,0,0.8,0.3,0.8,0.8
		s-0.3,0.8-0.8,0.8h-8c-0.7,0-1.3,0.6-1.3,1.3v14c0,0.7,0.6,1.3,1.3,1.3h14c0.7,0,1.3-0.6,1.3-1.3v-8C18,8.3,18.3,8,18.8,8
		s0.8,0.3,0.8,0.8v8C19.5,18.3,18.3,19.5,16.8,19.5z"/>
</g>
</svg>
