<?xml version="1.0" encoding="utf-8"?>
<!-- Generator: Adobe Illustrator 21.0.0, SVG Export Plug-In . SVG Version: 6.00 Build 0)  -->
<svg version="1.1" id="Layer_1" xmlns="http://www.w3.org/2000/svg" xmlns:xlink="http://www.w3.org/1999/xlink" x="0px" y="0px"
	 viewBox="0 0 19.2 19.2" style="enable-background:new 0 0 19.2 19.2;" xml:space="preserve">
<g>
	<path d="M12.6,19.2h-9c-1.5,0-2.8-1.2-2.8-2.8V5.6C0.9,4.2,2,3,3.5,3h1.1C5,3,5.4,3.3,5.4,3.7S5,4.5,4.6,4.5
		H3.5C2.9,4.5,2.4,5,2.4,5.6v10.9c0,0.7,0.6,1.3,1.3,1.3h9c0.7,0,1.3-0.6,1.3-1.3v-1c0-0.4,0.3-0.8,0.8-0.8s0.8,0.3,0.8,0.8v1
		C15.4,18,14.1,19.2,12.6,19.2z"/>
	<path d="M15.6,16.2h-9c-1.5,0-2.8-1.2-2.8-2.8V2.6C3.9,1.2,5,0,6.5,0h6.6c0.7,0,1.4,0.3,1.9,0.8l2.5,2.5
		c0.5,0.5,0.8,1.2,0.8,1.9v8.2C18.4,15,17.1,16.2,15.6,16.2z M6.5,1.5C5.9,1.5,5.4,2,5.4,2.6v10.9c0,0.7,0.6,1.3,1.3,1.3h9
		c0.7,0,1.3-0.6,1.3-1.3V5.3c0-0.3-0.1-0.7-0.4-0.9l-2.5-2.5c-0.2-0.2-0.6-0.4-0.9-0.4H6.5z"/>
	<path d="M17.6,6.1h-3.7c-0.9,0-1.7-0.8-1.7-1.7V0.7C12.2,0.3,12.5,0,13,0s0.8,0.3,0.8,0.8v3.7
		c0,0.1,0.1,0.2,0.2,0.2h3.7c0.4,0,0.8,0.3,0.8,0.8S18,6.1,17.6,6.1z"/>
</g>
</svg>
