<?xml version="1.0" encoding="utf-8"?>
<!-- Generator: Adobe Illustrator 21.0.0, SVG Export Plug-In . SVG Version: 6.00 Build 0)  -->
<svg version="1.1" id="Layer_1" xmlns="http://www.w3.org/2000/svg" xmlns:xlink="http://www.w3.org/1999/xlink" x="0px" y="0px"
	 viewBox="0 0 19.5 19.5" style="enable-background:new 0 0 19.5 19.5;" xml:space="preserve">
<path d="M13.7,15.5h-8c-0.4,0-0.8-0.3-0.8-0.8S5.3,14,5.8,14h8c0.4,0,0.8,0.3,0.8,0.8S14.2,15.5,13.7,15.5z"
	/>
<path d="M13.7,11.5h-8c-0.4,0-0.8-0.3-0.8-0.8S5.3,10,5.8,10h8c0.4,0,0.8,0.3,0.8,0.8S14.2,11.5,13.7,11.5z"
	/>
<path d="M16.8,19.5h-14c-1.5,0-2.8-1.2-2.8-2.8V5.8c0-1.5,1.2-2.8,2.8-2.8h4.5c0.6,0,1.1,0.3,1.4,0.8l1.4,2.1
	C10.1,6,10.2,6,10.3,6h6.5c1.5,0,2.8,1.2,2.8,2.8v8C19.5,18.3,18.3,19.5,16.8,19.5z M2.8,4.6c-0.7,0-1.3,0.6-1.3,1.3v10.9
	c0,0.7,0.6,1.3,1.3,1.3h14c0.7,0,1.3-0.6,1.3-1.3v-8c0-0.7-0.6-1.3-1.3-1.3h-6.5c-0.6,0-1.1-0.3-1.4-0.8L7.4,4.7
	c0-0.1-0.1-0.1-0.2-0.1H2.8z"/>
<path d="M16.8,7.5c-0.4,0-0.8-0.3-0.8-0.8v-4c0-0.7-0.7-1.3-1.6-1.3H5.1c-0.9,0-1.6,0.6-1.6,1.3v1
	c0,0.4-0.3,0.8-0.8,0.8S2,4.2,2,3.8v-1C2,1.2,3.4,0,5.1,0h9.3c1.7,0,3.1,1.2,3.1,2.8v4C17.5,7.2,17.2,7.5,16.8,7.5z"/>
</svg>
