<?xml version="1.0" encoding="utf-8"?>
<!-- Generator: Adobe Illustrator 21.0.0, SVG Export Plug-In . SVG Version: 6.00 Build 0)  -->
<svg version="1.1" id="Layer_1" xmlns="http://www.w3.org/2000/svg" xmlns:xlink="http://www.w3.org/1999/xlink" x="0px" y="0px"
	 viewBox="0 0 19.5 19.5" style="enable-background:new 0 0 19.5 19.5;" xml:space="preserve">
<g>
	<path d="M9.8,19.5C4.4,19.5,0,15.1,0,9.8S4.4,0,9.8,0s9.8,4.4,9.8,9.8S15.1,19.5,9.8,19.5z M9.8,1.5
		c-4.5,0-8.3,3.7-8.3,8.3S5.2,18,9.8,18S18,14.3,18,9.8S14.3,1.5,9.8,1.5z"/>
	<path d="M11,9.7c0,0.7-0.6,1.3-1.3,1.3c-0.7,0-1.3-0.6-1.3-1.3c0-0.7,0.6-1.3,1.3-1.3
		C10.4,8.5,11,9.1,11,9.7"/>
	<path d="M15,9.7c0,0.7-0.6,1.3-1.3,1.3c-0.7,0-1.3-0.6-1.3-1.3c0-0.7,0.6-1.3,1.3-1.3
		C14.4,8.5,15,9.1,15,9.7"/>
	<path d="M7,9.7C7,10.4,6.4,11,5.8,11s-1.3-0.6-1.3-1.3c0-0.7,0.6-1.3,1.3-1.3S7,9.1,7,9.7"/>
</g>
</svg>
