<?xml version="1.0" encoding="utf-8"?>
<!-- Generator: Adobe Illustrator 21.0.0, SVG Export Plug-In . SVG Version: 6.00 Build 0)  -->
<svg version="1.1" id="Layer_1" xmlns="http://www.w3.org/2000/svg" xmlns:xlink="http://www.w3.org/1999/xlink" x="0px" y="0px"
	 viewBox="0 0 19.5 19.5" style="enable-background:new 0 0 19.5 19.5;" xml:space="preserve">
<path d="M9.8,14.5c-0.4,0-0.8-0.3-0.8-0.8v-13C9,0.3,9.3,0,9.8,0s0.8,0.3,0.8,0.8v13
	C10.5,14.2,10.2,14.5,9.8,14.5z"/>
<path d="M17.8,19.5h-16c-0.4,0-0.8-0.3-0.8-0.8S1.3,18,1.8,18h16c0.4,0,0.8,0.3,0.8,0.8S18.2,19.5,17.8,19.5z
	"/>
<path d="M9.7,15.5c-0.2,0-0.4-0.1-0.5-0.2l-5-5c-0.3-0.3-0.3-0.8,0-1.1s0.8-0.3,1.1,0l5,5
	c0.3,0.3,0.3,0.8,0,1.1C10.1,15.4,9.9,15.5,9.7,15.5z"/>
<path d="M9.8,15.5c-0.2,0-0.4-0.1-0.5-0.2c-0.3-0.3-0.3-0.8,0-1.1l5-5c0.3-0.3,0.8-0.3,1.1,0s0.3,0.8,0,1.1
	l-5,5C10.1,15.4,9.9,15.5,9.8,15.5z"/>
</svg>
