<?xml version="1.0" encoding="utf-8"?>
<!-- Generator: Adobe Illustrator 21.0.0, SVG Export Plug-In . SVG Version: 6.00 Build 0)  -->
<svg version="1.1" id="Icons" xmlns="http://www.w3.org/2000/svg" xmlns:xlink="http://www.w3.org/1999/xlink" x="0px" y="0px"
	 viewBox="0 0 15.5 15.5" style="enable-background:new 0 0 15.5 15.5;" xml:space="preserve">
<g>
	<path d="M11.6,15.5H3.9c-1.3,0-2.3-1-2.3-2.3V2.3C1.6,1,2.6,0,3.9,0h5.6c0.6,0,1.2,0.2,1.6,0.7l2.2,2.2h0
		c0.4,0.4,0.7,1,0.7,1.6v8.7C13.9,14.5,12.9,15.5,11.6,15.5z M3.9,1.5c-0.4,0-0.8,0.4-0.8,0.8v10.9c0,0.4,0.4,0.8,0.8,0.8h7.8
		c0.4,0,0.8-0.4,0.8-0.8V4.5c0-0.2-0.1-0.4-0.2-0.6L10,1.7C9.9,1.6,9.7,1.5,9.4,1.5H3.9z"/>
</g>
<path d="M13.2,5.4h-3.1c-0.8,0-1.5-0.7-1.5-1.5V0.7C8.6,0.3,8.9,0,9.3,0s0.8,0.3,0.8,0.8v3.1l3.1,0
	c0.4,0,0.8,0.3,0.8,0.8S13.6,5.4,13.2,5.4z"/>
<g>
	<path d="M7,12.4c-0.4,0-0.8-0.3-0.8-0.8V7c0-0.4,0.3-0.8,0.8-0.8S7.7,6.6,7.7,7v4.7
		C7.7,12.1,7.4,12.4,7,12.4z"/>
	<path d="M7,12.4c-0.2,0-0.4-0.1-0.5-0.2c-0.3-0.3-0.3-0.8,0-1.1L8,9.6c0.3-0.3,0.8-0.3,1.1,0s0.3,0.8,0,1.1
		l-1.6,1.6C7.4,12.3,7.2,12.4,7,12.4z"/>
	<path d="M7,12.4c-0.2,0-0.4-0.1-0.5-0.2l-1.6-1.6c-0.3-0.3-0.3-0.8,0-1.1c0.3-0.3,0.8-0.3,1.1,0l1.6,1.6
		c0.3,0.3,0.3,0.8,0,1.1C7.4,12.3,7.2,12.4,7,12.4z"/>
</g>
</svg>
