<?xml version="1.0" encoding="utf-8"?>
<!-- Generator: Adobe Illustrator 21.0.0, SVG Export Plug-In . SVG Version: 6.00 Build 0)  -->
<svg version="1.1" id="Layer_1" xmlns="http://www.w3.org/2000/svg" xmlns:xlink="http://www.w3.org/1999/xlink" x="0px" y="0px"
	 viewBox="0 0 21.5 21.5" style="enable-background:new 0 0 21.5 21.5;" xml:space="preserve">
<g>
	<path d="M18.8,18.5h-16c-1.5,0-2.8-1.2-2.8-2.8v-10C0,4.2,1.2,3,2.8,3h16c1.5,0,2.8,1.2,2.8,2.8v10
		C21.5,17.3,20.3,18.5,18.8,18.5z M2.8,4.5c-0.7,0-1.3,0.6-1.3,1.3v10c0,0.7,0.6,1.3,1.3,1.3h16c0.7,0,1.3-0.6,1.3-1.3v-10
		c0-0.7-0.6-1.3-1.3-1.3H2.8z"/>
	<path d="M10.9,13.4c-0.8,0-1.6-0.3-2.3-0.8L0.4,6.3C0.1,6.1,0,5.6,0.3,5.3C0.5,5,1,4.9,1.3,5.2l8.2,6.3
		c0.8,0.6,1.9,0.6,2.8,0l8-6.3c0.3-0.3,0.8-0.2,1.1,0.1c0.3,0.3,0.2,0.8-0.1,1.1l-8,6.3C12.5,13.1,11.7,13.4,10.9,13.4z"/>
	<path d="M20.2,17c-0.2,0-0.4-0.1-0.5-0.2l-6-5.4c-0.3-0.3-0.3-0.8-0.1-1.1c0.3-0.3,0.8-0.3,1.1-0.1l6,5.4
		c0.3,0.3,0.3,0.8,0.1,1.1C20.6,16.9,20.4,17,20.2,17z"/>
	<path d="M1.4,17c-0.2,0-0.4-0.1-0.6-0.2c-0.3-0.3-0.3-0.8,0-1.1l6-5.5c0.3-0.3,0.8-0.3,1.1,0
		c0.3,0.3,0.3,0.8,0,1.1l-6,5.5C1.8,16.9,1.6,17,1.4,17z"/>
</g>
</svg>
