<?xml version="1.0" encoding="utf-8"?>
<!-- Generator: Adobe Illustrator 21.0.0, SVG Export Plug-In . SVG Version: 6.00 Build 0)  -->
<svg version="1.1" id="Layer_1" xmlns="http://www.w3.org/2000/svg" xmlns:xlink="http://www.w3.org/1999/xlink" x="0px" y="0px"
	 viewBox="0 0 19.5 19.5" style="enable-background:new 0 0 19.5 19.5;" xml:space="preserve">
<g>
	<path d="M9.8,18.5h-7c-1.5,0-2.8-1.2-2.8-2.8v-12C0,2.2,1.2,1,2.8,1h7c1.5,0,2.8,1.2,2.8,2.8v2
		c0,0.4-0.3,0.8-0.8,0.8S11,6.2,11,5.8v-2c0-0.7-0.6-1.3-1.3-1.3h-7c-0.7,0-1.3,0.6-1.3,1.3v12c0,0.7,0.6,1.3,1.3,1.3h7
		c0.7,0,1.3-0.6,1.3-1.3v-2c0-0.4,0.3-0.8,0.8-0.8s0.8,0.3,0.8,0.8v2C12.5,17.3,11.3,18.5,9.8,18.5z"/>
	<path d="M18.8,10.5h-11C7.3,10.5,7,10.2,7,9.8S7.3,9,7.8,9h11c0.4,0,0.8,0.3,0.8,0.8S19.2,10.5,18.8,10.5z"
		/>
	<path d="M15.8,13.5c-0.2,0-0.4-0.1-0.5-0.2c-0.3-0.3-0.3-0.8,0-1.1l3-3c0.3-0.3,0.8-0.3,1.1,0s0.3,0.8,0,1.1
		l-3,3C16.1,13.4,15.9,13.5,15.8,13.5z"/>
	<path d="M18.8,10.5c-0.2,0-0.4-0.1-0.5-0.2l-3-3c-0.3-0.3-0.3-0.8,0-1.1s0.8-0.3,1.1,0l3,3
		c0.3,0.3,0.3,0.8,0,1.1C19.1,10.4,18.9,10.5,18.8,10.5z"/>
</g>
</svg>
