<?xml version="1.0" encoding="utf-8"?>
<!-- Generator: Adobe Illustrator 21.0.0, SVG Export Plug-In . SVG Version: 6.00 Build 0)  -->
<svg version="1.1" id="Layer_1" xmlns="http://www.w3.org/2000/svg" xmlns:xlink="http://www.w3.org/1999/xlink" x="0px" y="0px"
	 viewBox="0 0 21.5 21.5" style="enable-background:new 0 0 21.5 21.5;" xml:space="preserve">
<g>
	<path d="M10.8,21.5C4.8,21.5,0,16.7,0,10.7C0,4.8,4.8,0,10.8,0s10.8,4.8,10.8,10.8
		C21.5,16.7,16.7,21.5,10.8,21.5z M10.8,1.5c-5.1,0-9.3,4.1-9.3,9.3c0,5.1,4.1,9.2,9.3,9.2s9.3-4.1,9.3-9.2
		C20,5.6,15.9,1.5,10.8,1.5z"/>
	<path d="M15.4,15.5h-4.6c-1,0-1.8-0.8-1.8-1.8v-2C9,11.3,9.3,11,9.8,11s0.8,0.3,0.8,0.8v2
		c0,0.1,0.1,0.3,0.3,0.3h4.6c0.1,0,0.2-0.1,0.2-0.1c0,0,0.1-0.1,0-0.2L15,12c-0.1-0.2-0.1-0.3,0-0.5l0.6-1.7c0-0.1,0-0.2,0-0.2
		c0,0-0.1-0.1-0.2-0.1h-3.6c-0.4,0-0.8-0.3-0.8-0.8S11.3,8,11.8,8h3.6c0.6,0,1.1,0.3,1.4,0.7c0.3,0.5,0.4,1,0.2,1.6l-0.5,1.4
		l0.5,1.4c0.2,0.5,0.1,1.1-0.2,1.6S15.9,15.5,15.4,15.5z"/>
	<path d="M10.8,12.5h-5c-0.4,0-0.8-0.3-0.8-0.8v-4C5,6.8,5.8,6,6.8,6h4c1,0,1.8,0.8,1.8,1.8v3
		C12.5,11.7,11.7,12.5,10.8,12.5z M6.5,11h4.3c0.1,0,0.3-0.1,0.3-0.2v-3c0-0.1-0.1-0.3-0.3-0.3h-4c-0.1,0-0.3,0.1-0.3,0.3V11z"/>
	<path d="M5.8,19.4c-0.4,0-0.8-0.3-0.8-0.8v-6.9C5,11.3,5.3,11,5.8,11s0.8,0.3,0.8,0.8v6.9
		C6.5,19.1,6.2,19.4,5.8,19.4z"/>
</g>
</svg>
