<?xml version="1.0" encoding="utf-8"?>
<!-- Generator: Adobe Illustrator 21.0.0, SVG Export Plug-In . SVG Version: 6.00 Build 0)  -->
<svg version="1.1" id="Icons" xmlns="http://www.w3.org/2000/svg" xmlns:xlink="http://www.w3.org/1999/xlink" x="0px" y="0px"
	 viewBox="0 0 23.5 23.5" style="enable-background:new 0 0 23.5 23.5;" xml:space="preserve">
<g>
	<g>
		<g>
			<g>
				<path d="M3.2,23.5c-0.4,0-0.8-0.3-0.8-0.8V1.9c0-0.4,0.3-0.8,0.8-0.8s0.8,0.3,0.8,0.8v20.9
					C3.9,23.2,3.6,23.5,3.2,23.5z"/>
			</g>
		</g>
		<path d="M20.3,15c-0.4,0-0.8-0.3-0.8-0.8V2c0-0.4,0.3-0.8,0.8-0.8s0.8,0.3,0.8,0.8v12.3
			C21.1,14.6,20.7,15,20.3,15z"/>
		<path d="M16,16.2c-1.7,0-3.2-0.6-4.6-1.1c-1.3-0.5-2.5-1-4-1c-2.8,0-3.8,0.7-3.8,0.7
			c-0.3,0.2-0.8,0.2-1-0.1s-0.2-0.8,0.1-1c0.1-0.1,1.4-1.1,4.8-1.1c1.7,0,3.2,0.6,4.6,1.1c1.3,0.5,2.5,1,4,1c2.8,0,3.7-0.9,3.7-1
			c0.3-0.3,0.8-0.3,1.1,0c0.3,0.3,0.3,0.7,0.1,1C20.7,14.9,19.5,16.2,16,16.2z"/>
		<path d="M16,3.6c-1.7,0-3.2-0.6-4.6-1.1c-1.3-0.5-2.5-1-4-1c-2.8,0-3.7,0.9-3.7,0.9C3.4,2.7,3,2.7,2.7,2.4
			c-0.3-0.3-0.3-0.7,0-1C2.8,1.2,4,0,7.5,0c1.7,0,3.2,0.6,4.6,1.1c1.3,0.5,2.5,1,4,1c2.8,0,3.8-0.7,3.8-0.7c0.3-0.2,0.8-0.2,1,0.1
			c0.3,0.3,0.2,0.8-0.1,1C20.7,2.7,19.4,3.6,16,3.6z"/>
	</g>
</g>
<path d="M3.3,1.7L3.5,14c0,0,1.7-0.8,3.7-0.7s2.5,0.2,3.7,0.6s0.5,0.2,1.9,0.6s2.3,0.6,2.3,0.6l1.1,0.1h2.2
	c0,0,0,0.2,0.6-0.1s0.8-0.5,0.8-0.5l0.4-1.6l0.3-7.2c0,0,0.2-2.3-0.4-2.7s-1.2-0.4-1.2-0.4L16,2.9L14,2.7l-2.8-1L9.1,0.9L7,0.7
	L4.6,1.2L3.3,1.7z"/>
</svg>
