<?xml version="1.0" encoding="utf-8"?>
<!-- Generator: Adobe Illustrator 21.0.0, SVG Export Plug-In . SVG Version: 6.00 Build 0)  -->
<svg version="1.1" id="Layer_1" xmlns="http://www.w3.org/2000/svg" xmlns:xlink="http://www.w3.org/1999/xlink" x="0px" y="0px"
	 viewBox="0 0 761.3 761.3" style="enable-background:new 0 0 761.3 761.3;" xml:space="preserve">
<path d="M158.8,590.1v-80.2L22.7,380.9v0l0,0l0,0l45.4-43l90.7-85.9v-80.8v0H244L380.7,42.3l136.7,128.9H602
	v0V252l1.5,1.4l30.6,28.5l99.7,94.4l4.9,4.6l0,0l0,0l-104.6,99L602,509.9v80.2v0h-84.6l-1.5,1.4L380.7,719l-7.6-7.2l-97.5-91.8
	l-29.3-27.7l-2.3-2.2L158.8,590.1L158.8,590.1z M380.7,21.3L253.4,141.4H127.3v118.9L0,380.9L127.3,501v119h126.1L380.7,740
	l127.3-120.1h126.1V501l127.3-120.1L634.1,260.3v-119H507.9L380.7,21.3z"/>
<g>
	<path d="M602,467.3l88.5-83.2l3.3-3.1l-33.2-31.4l-58.7-55.4c-35,40.6-82.2,70-133.3,85.7
		c-27.7,8.2-50.9,11.4-79.7,12.7c-23.1-0.3-47,3.3-67.5,14.4c-37,19.1-63.2,55.2-65.3,97.4c-1.4,37.7,12.2,63.5,32.5,85.8l30.9,29.2
		c20.1,17.3,42.1,34.9,61,57.6l0.1,0.1l33.1-31.3l58.7-55.6L602,467.3z"/>
	<path d="M158.8,467.3c34.2-37.8,78-67.4,126.7-83c53.5-21.6,98.9-7.7,143.3-24.9
		c36.7-13.6,65.5-46.4,74.1-84.7c7.7-43.3-5.2-73.6-27.1-99.8l-56.8-53.6c-13-11.3-26.2-23.2-38.4-36.3l-4.8,4.5L66.9,380.9
		L158.8,467.3L158.8,467.3z"/>
</g>
</svg>
