<?xml version="1.0" encoding="utf-8"?>
<!-- Generator: Adobe Illustrator 21.0.0, SVG Export Plug-In . SVG Version: 6.00 Build 0)  -->
<svg version="1.1" id="Icons" xmlns="http://www.w3.org/2000/svg" xmlns:xlink="http://www.w3.org/1999/xlink" x="0px" y="0px"
	 viewBox="0 0 19.5 19.5" style="enable-background:new 0 0 19.5 19.5;" xml:space="preserve">
<path d="M17,19.5H2.5c-1.4,0-2.5-1.1-2.5-2.5V9c0-0.8,0.3-1.5,0.9-2l0,0c0,0,0,0,0,0l8.3-6.8
	c0.3-0.2,0.7-0.2,1,0L18.6,7c0.6,0.5,0.9,1.2,0.9,2v8C19.5,18.4,18.4,19.5,17,19.5z M9.8,1.7L1.9,8.2h0C1.6,8.4,1.5,8.7,1.5,9v8
	c0,0.6,0.5,1,1,1H17c0.6,0,1-0.5,1-1V9c0-0.3-0.1-0.6-0.4-0.8L9.8,1.7z M1.4,7.6L1.4,7.6L1.4,7.6z"/>
<path d="M9.6,16.1c-2.3,0-4.3-1.9-4.3-4.3s1.9-4.3,4.3-4.3s4.3,1.9,4.3,4.3S11.9,16.1,9.6,16.1z M9.6,9.1
	c-1.5,0-2.8,1.2-2.8,2.8s1.2,2.8,2.8,2.8s2.8-1.2,2.8-2.8S11.1,9.1,9.6,9.1z"/>
</svg>
