<?xml version="1.0" encoding="utf-8"?>
<!-- Generator: Adobe Illustrator 21.0.0, SVG Export Plug-In . SVG Version: 6.00 Build 0)  -->
<svg version="1.1" id="Layer_1" xmlns="http://www.w3.org/2000/svg" xmlns:xlink="http://www.w3.org/1999/xlink" x="0px" y="0px"
	 viewBox="0 0 19.5 19.5" style="enable-background:new 0 0 19.5 19.5;" xml:space="preserve">
<path d="M8.9,19.5c-0.1,0-0.2,0-0.3-0.1c-0.3-0.1-0.5-0.4-0.5-0.8l0.7-6.2H2.4c-0.3,0-0.5-0.2-0.7-0.4
	c-0.1-0.3-0.1-0.6,0.1-0.8l8.2-11c0.2-0.3,0.6-0.4,0.9-0.2c0.3,0.1,0.5,0.4,0.5,0.8L10.6,7h6.5c0.3,0,0.5,0.2,0.7,0.4
	c0.1,0.3,0.1,0.6-0.1,0.8l-8.2,11C9.4,19.4,9.2,19.5,8.9,19.5z M3.9,11h5.9c0.2,0,0.4,0.1,0.6,0.3c0.1,0.2,0.2,0.4,0.2,0.6L10,16.1
	l5.6-7.6H9.8c-0.2,0-0.4-0.1-0.6-0.3C9,8.1,9,7.9,9,7.7l0.5-4.2L3.9,11z"/>
</svg>
