<?xml version="1.0" encoding="utf-8"?>
<!-- Generator: Adobe Illustrator 21.0.0, SVG Export Plug-In . SVG Version: 6.00 Build 0)  -->
<svg version="1.1" id="Icons" xmlns="http://www.w3.org/2000/svg" xmlns:xlink="http://www.w3.org/1999/xlink" x="0px" y="0px"
	 viewBox="0 0 15.7 15.7" style="enable-background:new 0 0 15.7 15.7;" xml:space="preserve">
<g>
	<g>
		<path d="M6.8,13.4c-3.7,0-6.7-3-6.7-6.7C0.1,3,3.1,0,6.8,0c3.7,0,6.7,3,6.7,6.7
			C13.5,10.4,10.5,13.4,6.8,13.4z M6.8,1.5c-2.9,0-5.2,2.3-5.2,5.2s2.3,5.2,5.2,5.2S12,9.6,12,6.7S9.7,1.5,6.8,1.5z"/>
		<path d="M14.8,15.7c-0.2,0-0.4-0.1-0.5-0.2l-3.9-3.9c-0.3-0.3-0.3-0.8,0-1.1c0.3-0.3,0.8-0.3,1.1,0l3.9,3.9
			c0.3,0.3,0.3,0.8,0,1.1C15.2,15.6,15,15.7,14.8,15.7z"/>
	</g>
</g>
</svg>
