<?xml version="1.0" encoding="utf-8"?>
<!-- Generator: Adobe Illustrator 21.0.0, SVG Export Plug-In . SVG Version: 6.00 Build 0)  -->
<svg version="1.1" id="Icons" xmlns="http://www.w3.org/2000/svg" xmlns:xlink="http://www.w3.org/1999/xlink" x="0px" y="0px"
	 viewBox="0 0 15.5 15.5" style="enable-background:new 0 0 15.5 15.5;" xml:space="preserve">
<path d="M11.6,15.5H3.9c-1.3,0-2.3-1-2.3-2.3V2.3C1.6,1,2.6,0,3.9,0h5.6c0.6,0,1.2,0.2,1.6,0.7l2.2,2.2h0
	c0.4,0.4,0.7,1,0.7,1.6v8.7C13.9,14.5,12.9,15.5,11.6,15.5z M3.9,1.5c-0.4,0-0.8,0.4-0.8,0.8v10.9c0,0.4,0.4,0.8,0.8,0.8h7.8
	c0.4,0,0.8-0.4,0.8-0.8V4.5c0-0.2-0.1-0.4-0.2-0.6L10,1.7C9.9,1.6,9.7,1.5,9.4,1.5H3.9z"/>
<path d="M13.2,5.4h-3.1c-0.8,0-1.5-0.7-1.5-1.5V0.8C8.6,0.3,8.9,0,9.3,0s0.8,0.3,0.8,0.8v3.1l3.1,0
	c0.4,0,0.8,0.3,0.8,0.8S13.6,5.4,13.2,5.4z"/>
<g>
	<path d="M5.6,12c-0.1,0-0.3,0-0.4-0.1c-0.3-0.2-0.4-0.7-0.2-1l2.2-3.3c0.2-0.3,0.7-0.4,1-0.2
		c0.3,0.2,0.4,0.7,0.2,1l-2.2,3.3C6.1,11.9,5.8,12,5.6,12z"/>
	<path d="M9.9,12c-0.2,0-0.5-0.1-0.6-0.3L7.2,8.4C6.9,8,7.1,7.5,7.4,7.3c0.3-0.2,0.8-0.1,1,0.2l2.1,3.3
		c0.2,0.3,0.1,0.8-0.2,1C10.2,12,10.1,12,9.9,12z"/>
	<path d="M9.9,12H5.6c-0.4,0-0.8-0.3-0.8-0.8s0.3-0.8,0.8-0.8h4.3c0.4,0,0.8,0.3,0.8,0.8S10.3,12,9.9,12z"/>
</g>
<g>
	<path style="fill:#FFFFFF;" d="M6.8,8.2V7.6C6.8,7.2,7.1,7,7.4,7h0.6c0.3,0,0.6,0.3,0.6,0.6v0.6c0,0.3-0.3,0.6-0.6,0.6H7.4
		C7.1,8.8,6.8,8.5,6.8,8.2z"/>
	<path d="M8.1,9.5H7.4c-0.7,0-1.3-0.6-1.3-1.3V7.6c0-0.7,0.6-1.3,1.3-1.3h0.6c0.7,0,1.3,0.6,1.3,1.3v0.6
		C9.4,8.9,8.8,9.5,8.1,9.5z M7.6,8h0.3V7.7H7.6V8z"/>
</g>
<g>
	<g>
		<path style="fill:#FFFFFF;" d="M4.6,11.8v-0.6c0-0.3,0.3-0.6,0.6-0.6h0.6c0.3,0,0.6,0.3,0.6,0.6v0.6c0,0.3-0.3,0.6-0.6,0.6H5.2
			C4.9,12.4,4.6,12.2,4.6,11.8z"/>
		<path d="M5.9,13.2H5.2c-0.7,0-1.3-0.6-1.3-1.3v-0.6c0-0.7,0.6-1.3,1.3-1.3h0.6c0.7,0,1.3,0.6,1.3,1.3v0.6
			C7.2,12.6,6.6,13.2,5.9,13.2z M5.4,11.7h0.3v-0.3H5.4V11.7z"/>
	</g>
	<path style="fill:#FFFFFF;stroke:#323232;stroke-width:1.5;stroke-linecap:round;stroke-linejoin:round;" d="M9,11.8v-0.6
		c0-0.3,0.3-0.6,0.6-0.6h0.6c0.3,0,0.6,0.3,0.6,0.6v0.6c0,0.3-0.3,0.6-0.6,0.6H9.6C9.3,12.4,9,12.2,9,11.8z"/>
</g>
</svg>
