<?xml version="1.0" encoding="utf-8"?>
<!-- Generator: Adobe Illustrator 21.0.0, SVG Export Plug-In . SVG Version: 6.00 Build 0)  -->
<svg version="1.1" id="Layer_1" xmlns="http://www.w3.org/2000/svg" xmlns:xlink="http://www.w3.org/1999/xlink" x="0px" y="0px"
	 viewBox="0 0 19.5 19.5" style="enable-background:new 0 0 19.5 19.5;" xml:space="preserve">
<g>
	<path d="M13.8,19.5c-0.3,0-0.5,0-0.8-0.1c-2.9-0.5-5.9-2.2-8.3-4.7c-2.5-2.5-4.1-5.4-4.7-8.3
		c-0.2-1.3,0.1-2.6,1.1-3.5l0.7-0.7c1.1-1.1,2.8-1.1,3.9,0l1.2,1.2c0.9,0.9,0.9,2.3-0.1,3.3L5.9,7.6c0.6,1.3,1.4,2.5,2.5,3.6
		c1.1,1.1,2.3,1.9,3.6,2.5l0.9-0.9c0.9-0.9,2.3-0.9,3.2,0l1.2,1.2c0.5,0.5,0.8,1.2,0.8,1.9c0,0.7-0.3,1.4-0.8,1.9l-0.7,0.7
		C15.9,19.1,14.9,19.5,13.8,19.5z M3.7,3C3.4,3,3.1,3.1,2.8,3.4L2.2,4C1.6,4.6,1.4,5.4,1.5,6.2c0.5,2.6,2,5.3,4.3,7.5
		c2.3,2.3,4.9,3.8,7.5,4.3c0.8,0.2,1.6-0.1,2.2-0.6l0.7-0.7c0.2-0.2,0.4-0.5,0.4-0.9s-0.1-0.6-0.4-0.9c0,0,0,0,0,0L15,13.8
		c-0.3-0.3-0.8-0.3-1.1,0L13,14.7c-0.4,0.4-1.1,0.6-1.6,0.3c-1.5-0.6-2.9-1.6-4.1-2.8c-1.2-1.2-2.2-2.6-2.8-4
		C4.3,7.6,4.4,6.9,4.9,6.5l0.8-0.8c0.4-0.4,0.4-0.8,0.1-1.1L4.6,3.4C4.4,3.1,4,3,3.7,3z"/>
	<path d="M13.6,6.7c-0.2,0-0.4-0.1-0.5-0.2c-0.6-0.6-1.4-1-2.3-0.9c-0.4,0-0.8-0.3-0.8-0.7
		C10,4.4,10.3,4,10.7,4c1.3,0,2.5,0.5,3.4,1.4c0.3,0.3,0.3,0.8,0,1.1C14,6.6,13.8,6.7,13.6,6.7z"/>
	<path d="M16.4,3.9c-0.2,0-0.4-0.1-0.5-0.2c-1.4-1.4-3.2-2.1-5.2-2.1c-0.4,0-0.8-0.3-0.8-0.8S10.3,0,10.7,0
		c2.3,0,4.6,0.9,6.2,2.6c0.3,0.3,0.3,0.8,0,1.1C16.8,3.8,16.6,3.9,16.4,3.9z"/>
	<path d="M14.8,9.5C14.8,9.5,14.8,9.5,14.8,9.5c-0.4,0-0.8-0.3-0.8-0.8c0-0.9-0.3-1.7-0.9-2.3
		c-0.3-0.3-0.3-0.8,0-1.1c0.3-0.3,0.8-0.3,1.1,0c0.9,0.9,1.4,2.1,1.4,3.4C15.5,9.2,15.2,9.5,14.8,9.5z"/>
	<path d="M18.8,9.5c-0.4,0-0.8-0.3-0.8-0.8c0-1.9-0.8-3.8-2.1-5.2c-0.3-0.3-0.3-0.8,0-1.1s0.8-0.3,1.1,0
		c1.7,1.7,2.6,3.9,2.6,6.2C19.5,9.2,19.2,9.5,18.8,9.5z"/>
</g>
</svg>
