<?xml version="1.0" encoding="utf-8"?>
<!-- Generator: Adobe Illustrator 21.0.0, SVG Export Plug-In . SVG Version: 6.00 Build 0)  -->
<svg version="1.1" id="Layer_1" xmlns="http://www.w3.org/2000/svg" xmlns:xlink="http://www.w3.org/1999/xlink" x="0px" y="0px"
	 viewBox="0 0 19.5 19.5" style="enable-background:new 0 0 19.5 19.5;" xml:space="preserve">
<path d="M9.8,14.5c-0.4,0-0.8-0.3-0.8-0.8v-8C9,5.3,9.3,5,9.8,5s0.8,0.3,0.8,0.8v8
	C10.5,14.2,10.2,14.5,9.8,14.5z"/>
<path d="M13.8,10.5h-8C5.3,10.5,5,10.2,5,9.8S5.3,9,5.8,9h8c0.4,0,0.8,0.3,0.8,0.8S14.2,10.5,13.8,10.5z"/>
<g>
	<path d="M9.8,19.5C4.4,19.5,0,15.1,0,9.8S4.4,0,9.8,0s9.8,4.4,9.8,9.8S15.1,19.5,9.8,19.5z M9.8,1.5
		c-4.5,0-8.3,3.7-8.3,8.3S5.2,18,9.8,18S18,14.3,18,9.8S14.3,1.5,9.8,1.5z"/>
</g>
</svg>
