<?xml version="1.0" encoding="utf-8"?>
<!-- Generator: Adobe Illustrator 21.0.0, SVG Export Plug-In . SVG Version: 6.00 Build 0)  -->
<svg version="1.1" id="Layer_1" xmlns="http://www.w3.org/2000/svg" xmlns:xlink="http://www.w3.org/1999/xlink" x="0px" y="0px"
	 viewBox="0 0 19.5 19.5" style="enable-background:new 0 0 19.5 19.5;" xml:space="preserve">
<g>
	<path d="M14.6,6.5H4.9c-0.4,0-0.8-0.3-0.8-0.8v-4C4.2,0.8,5,0,5.9,0h7.6c1,0,1.8,0.8,1.8,1.8v4
		C15.3,6.2,15,6.5,14.6,6.5z M5.7,5h8.1V1.8c0-0.1-0.1-0.3-0.3-0.3H5.9c-0.1,0-0.3,0.1-0.3,0.3V5z"/>
	<path d="M13.8,19.5h-8c-1,0-1.8-0.8-1.8-1.8v-6C4,11.3,4.3,11,4.8,11h10c0.4,0,0.8,0.3,0.8,0.8v6
		C15.5,18.7,14.7,19.5,13.8,19.5z M5.5,12.5v5.3c0,0.1,0.1,0.3,0.3,0.3h8c0.1,0,0.3-0.1,0.3-0.3v-5.3H5.5z"/>
	<path d="M14.8,12.5h-10c-0.4,0-0.8-0.3-0.8-0.8S4.3,11,4.8,11h10c0.4,0,0.8,0.3,0.8,0.8S15.2,12.5,14.8,12.5
		z"/>
	<path d="M15.8,9.5h-1c-0.4,0-0.8-0.3-0.8-0.8S14.3,8,14.8,8h1c0.4,0,0.8,0.3,0.8,0.8S16.2,9.5,15.8,9.5z"/>
	<path d="M17.8,15.5h-3c-0.4,0-0.8-0.3-0.8-0.8s0.3-0.8,0.8-0.8h3c0.1,0,0.3-0.1,0.3-0.3v-7
		c0-0.1-0.1-0.3-0.3-0.3h-16c-0.1,0-0.3,0.1-0.3,0.3v7c0,0.1,0.1,0.3,0.3,0.3h3c0.4,0,0.8,0.3,0.8,0.8s-0.3,0.8-0.8,0.8h-3
		c-1,0-1.8-0.8-1.8-1.8v-7C0,5.8,0.8,5,1.8,5h16c1,0,1.8,0.8,1.8,1.8v7C19.5,14.7,18.7,15.5,17.8,15.5z"/>
</g>
</svg>
