<?xml version="1.0" encoding="utf-8"?>
<!-- Generator: Adobe Illustrator 21.0.0, SVG Export Plug-In . SVG Version: 6.00 Build 0)  -->
<svg version="1.1" id="Layer_1" xmlns="http://www.w3.org/2000/svg" xmlns:xlink="http://www.w3.org/1999/xlink" x="0px" y="0px"
	 viewBox="0 0 17.5 17.5" style="enable-background:new 0 0 17.5 17.5;" xml:space="preserve">
<g>
	<path d="M8.8,17.5c-3.5,0-6.6-2.1-8-5.2c-0.2-0.4,0-0.8,0.4-1c0.4-0.2,0.8,0,1,0.4C3.3,14.3,5.9,16,8.8,16
		c3.6,0,6.7-2.7,7.2-6.3C16.1,9.2,16.4,9,16.8,9c0.4,0.1,0.7,0.4,0.7,0.8C16.9,14.2,13.2,17.5,8.8,17.5z"/>
	<path d="M0.8,16.5c-0.4,0-0.8-0.3-0.8-0.8v-4C0,11.3,0.3,11,0.8,11s0.8,0.3,0.8,0.8v4
		C1.5,16.2,1.2,16.5,0.8,16.5z"/>
	<path d="M4.8,12.5h-4c-0.4,0-0.8-0.3-0.8-0.8S0.3,11,0.8,11h4c0.4,0,0.8,0.3,0.8,0.8S5.2,12.5,4.8,12.5z"/>
	<path d="M0.8,8.5C0.7,8.5,0.7,8.5,0.8,8.5C0.2,8.4,0,8.1,0,7.7C0.6,3.3,4.3,0,8.7,0c3.5,0,6.6,2.1,8,5.3
		c0.2,0.4,0,0.8-0.4,1c-0.4,0.2-0.8,0-1-0.4c-1.2-2.6-3.8-4.4-6.6-4.4C5,1.5,1.9,4.2,1.5,7.8C1.4,8.2,1.1,8.5,0.8,8.5z"/>
	<path d="M16.8,6.5c-0.4,0-0.8-0.3-0.8-0.8v-4C16,1.3,16.3,1,16.8,1s0.8,0.3,0.8,0.8v4
		C17.5,6.2,17.2,6.5,16.8,6.5z"/>
	<path d="M16.8,6.5h-4c-0.4,0-0.8-0.3-0.8-0.8S12.3,5,12.8,5h4c0.4,0,0.8,0.3,0.8,0.8S17.2,6.5,16.8,6.5z"/>
</g>
</svg>
