<?xml version="1.0" encoding="utf-8"?>
<!-- Generator: Adobe Illustrator 21.0.0, SVG Export Plug-In . SVG Version: 6.00 Build 0)  -->
<svg version="1.1" id="Layer_1" xmlns="http://www.w3.org/2000/svg" xmlns:xlink="http://www.w3.org/1999/xlink" x="0px" y="0px"
	 viewBox="0 0 20.5 20.5" style="enable-background:new 0 0 20.5 20.5;" xml:space="preserve">
<g>
	<defs>
		<rect id="SVGID_1_" x="0.5" width="19.5" height="20.5"/>
	</defs>
	<clipPath id="SVGID_2_">
		<use xlink:href="#SVGID_1_"  style="overflow:visible;"/>
	</clipPath>
</g>
<path d="M16.6,16.6c-0.2,0-0.4-0.1-0.5-0.2c-0.3-0.3-0.3-0.8,0-1.1c1.6-1.5,2.4-3.6,2.4-5.7s-0.9-4.2-2.4-5.7
	c-3.2-3.2-8.4-3.2-11.7,0C2.9,5.4,2,7.4,2,9.6s0.9,4.2,2.4,5.7c0.3,0.3,0.3,0.8,0,1.1c-0.3,0.3-0.8,0.3-1.1,0
	c-1.8-1.8-2.9-4.2-2.9-6.8c0-2.6,1-5,2.9-6.8c3.8-3.7,10-3.7,13.8,0C19,4.6,20,7,20,9.6c0,2.6-1,5-2.9,6.8
	C17,16.5,16.8,16.6,16.6,16.6z"/>
<path d="M18.4,20.5h-16c-0.4,0-0.8-0.3-0.8-0.8S1.9,19,2.4,19h16c0.4,0,0.8,0.3,0.8,0.8S18.8,20.5,18.4,20.5z
	"/>
<path d="M11.6,10.7c-0.4,0-0.8-0.3-0.8-0.8s0.3-0.8,0.8-0.8c0.8,0,1.4-0.6,1.4-1.4c0-0.8-0.6-1.4-1.4-1.4
	c-0.4,0-0.8-0.3-0.8-0.8S11.2,5,11.6,5c1.6,0,2.9,1.3,2.9,2.9C14.5,9.5,13.2,10.7,11.6,10.7z"/>
<path d="M11.8,10.7h-5C6.3,10.7,6,10.4,6,10s0.3-0.8,0.8-0.8h5c0.4,0,0.8,0.3,0.8,0.8S12.2,10.7,11.8,10.7z"
	/>
<path d="M11.3,13.5H6.7c-0.4,0-0.8-0.3-0.8-0.8S6.3,12,6.7,12h4.5c0.4,0,0.8,0.3,0.8,0.8S11.7,13.5,11.3,13.5
	z"/>
<path d="M11.6,6.5H8.4C8,6.5,7.7,6.2,7.7,5.8S8,5,8.4,5h3.2c0.4,0,0.8,0.3,0.8,0.8S12,6.5,11.6,6.5z"/>
<path d="M8.4,15.5c-0.4,0-0.8-0.3-0.8-0.8v-9C7.7,5.3,8,5,8.4,5s0.8,0.3,0.8,0.8v9
	C9.2,15.2,8.9,15.5,8.4,15.5z"/>
</svg>
