<?xml version="1.0" encoding="utf-8"?>
<!-- Generator: Adobe Illustrator 21.0.0, SVG Export Plug-In . SVG Version: 6.00 Build 0)  -->
<svg version="1.1" id="Layer_1" xmlns="http://www.w3.org/2000/svg" xmlns:xlink="http://www.w3.org/1999/xlink" x="0px" y="0px"
	 viewBox="0 0 19.5 19.5" style="enable-background:new 0 0 19.5 19.5;" xml:space="preserve">
<g>
	<path d="M13.7,19.5c-0.9,0-1.8-0.2-2.6-0.6c-1.9,0.3-3.8,0-5.5-0.9c-2-1-3.7-2.8-4.5-5
		c-0.5-1.4-0.7-3-0.5-4.6C0,7.2-0.2,5.8,0.1,4.6c0.3-1.4,1.1-2.7,2.3-3.5c1.7-1.2,4.1-1.4,6-0.4c2-0.3,4,0.1,5.7,1
		c2,1.1,3.6,2.9,4.3,5.1c0.5,1.4,0.6,2.9,0.4,4.3c0.6,1.2,0.8,2.5,0.5,3.8c-0.3,1.5-1.2,2.8-2.5,3.7C16,19.2,14.8,19.5,13.7,19.5z
		 M11.2,17.3c0.1,0,0.3,0,0.4,0.1c1.4,0.8,3.2,0.7,4.5-0.1c1-0.6,1.6-1.6,1.9-2.7c0.2-1,0-2.1-0.5-3c-0.1-0.2-0.1-0.3-0.1-0.5
		c0.2-1.3,0.1-2.6-0.3-3.8c-0.6-1.8-1.9-3.4-3.6-4.3c-1.5-0.8-3.3-1.1-5-0.8c-0.2,0-0.4,0-0.5-0.1C6.5,1.2,4.6,1.3,3.3,2.3
		c0,0,0,0,0,0C2.4,2.9,1.8,3.8,1.6,4.9c-0.2,1-0.1,2.1,0.5,3c0.1,0.2,0.1,0.3,0.1,0.5C1.9,9.8,2,11.2,2.5,12.5
		c0.7,1.8,2,3.3,3.7,4.2c1.5,0.7,3.2,1,4.8,0.7C11.1,17.3,11.2,17.3,11.2,17.3z M2.9,1.7L2.9,1.7L2.9,1.7z"/>
	<path d="M6.8,8.5C6.3,8.5,6,8.1,6,7.7C6,6.5,7,5,9.8,5c0.4,0,0.8,0.3,0.8,0.8s-0.3,0.8-0.8,0.8
		C8.4,6.5,7.5,7,7.5,7.7C7.5,8.1,7.2,8.5,6.8,8.5z"/>
	<path d="M9.8,10.5c0,0-0.1,0-0.1,0l-1.5-0.2C6.9,10,6,9,6,7.7C6,7.3,6.3,7,6.8,7s0.8,0.3,0.8,0.8
		c0,0.5,0.4,1,0.9,1L9.9,9c0.4,0.1,0.7,0.5,0.6,0.9C10.4,10.2,10.1,10.5,9.8,10.5z"/>
	<path d="M12.8,12.5c-0.4,0-0.8-0.3-0.8-0.8c0-0.5-0.4-1-0.9-1l-1.5-0.3C9.2,10.4,8.9,10,9,9.6
		C9.1,9.2,9.5,8.9,9.9,9l1.5,0.3c1.2,0.2,2.1,1.3,2.1,2.5C13.5,12.2,13.2,12.5,12.8,12.5z"/>
	<path d="M12.7,8c-0.3,0-0.6-0.2-0.7-0.5c-0.2-0.5-1-1-2.2-1C9.3,6.5,9,6.2,9,5.7S9.3,5,9.8,5
		c1.7,0,3.2,0.8,3.6,2c0.1,0.4-0.1,0.8-0.5,1C12.8,8,12.8,8,12.7,8z"/>
	<path d="M9.8,14.5c-0.4,0-0.8-0.3-0.8-0.8S9.3,13,9.8,13c1.4,0,2.3-0.5,2.3-1.2c0-0.4,0.3-0.8,0.8-0.8
		s0.8,0.3,0.8,0.8C13.5,13,12.5,14.5,9.8,14.5z"/>
	<path d="M9.8,14.5c-1.7,0-3.2-0.8-3.6-2c-0.1-0.4,0.1-0.8,0.5-1c0.4-0.1,0.8,0.1,1,0.5c0.2,0.5,1,1,2.2,1
		c0.4,0,0.8,0.3,0.8,0.8S10.2,14.5,9.8,14.5z"/>
</g>
</svg>
