<?xml version="1.0" encoding="utf-8"?>
<!-- Generator: Adobe Illustrator 21.0.0, SVG Export Plug-In . SVG Version: 6.00 Build 0)  -->
<svg version="1.1" id="Layer_1" xmlns="http://www.w3.org/2000/svg" xmlns:xlink="http://www.w3.org/1999/xlink" x="0px" y="0px"
	 viewBox="0 0 20.5 20.5" style="enable-background:new 0 0 20.5 20.5;" xml:space="preserve">
<g>
	<path d="M17.2,20.5H3.3c-1.6,0-2.8-1.3-2.8-2.8V6.8C0.5,5.3,1.8,4,3.3,4c0.4,0,0.8,0.3,0.8,0.8
		S3.7,5.5,3.3,5.5C2.6,5.5,2,6.1,2,6.8v10.9C2,18.4,2.6,19,3.3,19h13.9c0.7,0,1.3-0.6,1.3-1.3V6.8c0-0.7-0.6-1.3-1.3-1.3
		c-0.4,0-0.8-0.3-0.8-0.8S16.8,4,17.2,4C18.7,4,20,5.3,20,6.8v10.9C20,19.2,18.7,20.5,17.2,20.5z"/>
	<path d="M7.9,5.5H3.3c-0.4,0-0.8-0.3-0.8-0.8S2.9,4,3.3,4h4.6c0.4,0,0.8,0.3,0.8,0.8S8.3,5.5,7.9,5.5z"/>
	<path d="M12.3,7.5h-4C7.5,7.5,6.8,7,6.6,6.3c-0.2-0.7,0-1.5,0.6-2l1-0.8L7.7,2.7C7.3,2.2,7.3,1.5,7.6,0.9
		C7.9,0.4,8.5,0,9.1,0h2.3c0.6,0,1.2,0.4,1.5,0.9c0.3,0.6,0.3,1.3-0.1,1.8l-0.6,0.9l1,0.8c0.6,0.5,0.9,1.2,0.6,2
		C13.7,7,13,7.5,12.3,7.5z M9.1,1.5C9,1.5,8.9,1.6,8.9,1.6s-0.1,0.1,0,0.3l0.7,1C10,3.5,9.9,4.2,9.3,4.6c0,0,0,0,0,0L8.1,5.6
		C8,5.6,8,5.8,8,5.8C8,5.9,8.1,6,8.3,6h4c0.1,0,0.2-0.1,0.2-0.2c0-0.1,0-0.2-0.1-0.3l-1.2-0.9c-0.5-0.4-0.7-1.1-0.3-1.7l0.7-1.1
		c0.1-0.1,0-0.2,0-0.3s-0.1-0.1-0.2-0.1H9.1z M8.9,4L8.9,4L8.9,4z M8.4,3.4L8.4,3.4L8.4,3.4L8.4,3.4z"/>
	<path d="M10.3,9.5c-0.4,0-0.8-0.3-0.8-0.8v-2C9.5,6.3,9.8,6,10.3,6S11,6.3,11,6.8v2
		C11,9.2,10.7,9.5,10.3,9.5z"/>
	<path d="M15.3,12.5h-10c-0.4,0-0.8-0.3-0.8-0.8S4.8,11,5.3,11h10c0.4,0,0.8,0.3,0.8,0.8S15.7,12.5,15.3,12.5
		z"/>
	<path d="M15.3,16.5h-10c-0.4,0-0.8-0.3-0.8-0.8S4.8,15,5.3,15h10c0.4,0,0.8,0.3,0.8,0.8S15.7,16.5,15.3,16.5
		z"/>
	<path d="M17.2,5.5h-4.6c-0.4,0-0.8-0.3-0.8-0.8S12.2,4,12.6,4h4.6c0.4,0,0.8,0.3,0.8,0.8S17.6,5.5,17.2,5.5z
		"/>
</g>
</svg>
