<?xml version="1.0" encoding="utf-8"?>
<!-- Generator: Adobe Illustrator 21.0.0, SVG Export Plug-In . SVG Version: 6.00 Build 0)  -->
<svg version="1.1" id="Layer_1" xmlns="http://www.w3.org/2000/svg" xmlns:xlink="http://www.w3.org/1999/xlink" x="0px" y="0px"
	 viewBox="0 0 21.5 21.5" style="enable-background:new 0 0 21.5 21.5;" xml:space="preserve">
<g>
	<path d="M16.8,21.5h-12c-1.5,0-2.8-1.2-2.8-2.8v-13C2,4.2,3.2,3,4.7,3h4c0.4,0,0.8,0.3,0.8,0.8
		S9.2,4.5,8.7,4.5h-4c-0.7,0-1.3,0.6-1.3,1.3v13c0,0.7,0.6,1.3,1.3,1.3h12c0.7,0,1.3-0.6,1.3-1.3v-13c0-0.7-0.6-1.3-1.3-1.3h-4
		c-0.4,0-0.8-0.3-0.8-0.8S12.3,3,12.8,3h4c1.5,0,2.8,1.2,2.8,2.8v13C19.5,20.3,18.3,21.5,16.8,21.5z"/>
	<path d="M11.8,6.5h-2C8.8,6.5,8,5.7,8,4.8v-3C8,0.8,8.8,0,9.7,0h2c1,0,1.8,0.8,1.8,1.8v3
		C13.5,5.7,12.7,6.5,11.8,6.5z M9.7,1.5c-0.1,0-0.3,0.1-0.3,0.3v3C9.5,4.9,9.6,5,9.7,5h2C11.9,5,12,4.9,12,4.8v-3
		c0-0.1-0.1-0.3-0.3-0.3H9.7z"/>
	<path d="M10.8,13.1c-1.5,0-2.8-1.2-2.8-2.7c0-1.5,1.2-2.8,2.8-2.8s2.8,1.2,2.8,2.8
		C13.5,11.8,12.3,13.1,10.8,13.1z M10.8,9.1c-0.7,0-1.3,0.6-1.3,1.3c0,0.7,0.6,1.2,1.3,1.2S12,11,12,10.3C12,9.7,11.4,9.1,10.8,9.1z
		"/>
	<path d="M14.8,18.5c-0.4,0-0.8-0.3-0.8-0.8c0-1.2-1-2.3-2.3-2.3h-2c-1.2,0-2.3,1-2.3,2.3
		c0,0.4-0.3,0.8-0.8,0.8S6,18.2,6,17.8C6,15.7,7.7,14,9.7,14h2c2.1,0,3.8,1.7,3.8,3.8C15.5,18.2,15.2,18.5,14.8,18.5z"/>
</g>
</svg>
