<?xml version="1.0" encoding="utf-8"?>
<!-- Generator: Adobe Illustrator 21.0.0, SVG Export Plug-In . SVG Version: 6.00 Build 0)  -->
<svg version="1.1" id="Layer_1" xmlns="http://www.w3.org/2000/svg" xmlns:xlink="http://www.w3.org/1999/xlink" x="0px" y="0px"
	 viewBox="0 0 25.5 25.5" style="enable-background:new 0 0 25.5 25.5;" xml:space="preserve">
<path d="M12.8,25.5C5.7,25.5,0,19.8,0,12.8S5.7,0,12.8,0s12.8,5.7,12.8,12.8S19.8,25.5,12.8,25.5z M12.8,1.5
	c-6.2,0-11.3,5-11.3,11.3S6.5,24,12.8,24S24,19,24,12.8S19,1.5,12.8,1.5z"/>
<path d="M20.3,22.6c-0.4,0-0.8-0.3-0.8-0.8c0-2.4-3-4.3-6.6-4.3s-6.6,1.9-6.6,4.3c0,0.4-0.3,0.8-0.8,0.8
	s-0.8-0.3-0.8-0.8c0-3.2,3.7-5.8,8.2-5.8s8.2,2.6,8.2,5.8C21.1,22.3,20.7,22.6,20.3,22.6z"/>
<path d="M12.8,14.8c-2.6,0-4.8-2.1-4.8-4.7s2.1-4.8,4.8-4.8s4.8,2.1,4.8,4.8C17.5,12.7,15.4,14.8,12.8,14.8z
	 M12.8,6.8c-1.8,0-3.3,1.5-3.3,3.3s1.5,3.2,3.3,3.2s3.3-1.5,3.3-3.2S14.5,6.8,12.8,6.8z"/>
</svg>
