<?xml version="1.0" encoding="utf-8"?>
<!-- Generator: Adobe Illustrator 21.0.0, SVG Export Plug-In . SVG Version: 6.00 Build 0)  -->
<svg version="1.1" id="Icons" xmlns="http://www.w3.org/2000/svg" xmlns:xlink="http://www.w3.org/1999/xlink" x="0px" y="0px"
	 viewBox="0 0 15.5 15.5" style="enable-background:new 0 0 15.5 15.5;" xml:space="preserve">
<g>
	<g>
		<path d="M14.8,6.2h-14C0.3,6.2,0,5.8,0,5.4s0.3-0.8,0.8-0.8h14c0.4,0,0.8,0.3,0.8,0.8S15.2,6.2,14.8,6.2z"
			/>
		<path d="M5.9,9.3h-2c-0.4,0-0.8-0.3-0.8-0.8s0.3-0.8,0.8-0.8h2c0.4,0,0.8,0.3,0.8,0.8S6.3,9.3,5.9,9.3z"/>
		<path d="M12.8,13.9h-10C1.2,13.9,0,12.6,0,11V4.5c0-1.6,1.2-2.9,2.8-2.9h10c1.5,0,2.8,1.3,2.8,2.9V11
			C15.5,12.6,14.3,13.9,12.8,13.9z M2.8,3.1c-0.7,0-1.3,0.6-1.3,1.4V11c0,0.8,0.6,1.4,1.3,1.4h10c0.7,0,1.3-0.6,1.3-1.4V4.5
			c0-0.8-0.6-1.4-1.3-1.4H2.8z"/>
	</g>
</g>
</svg>
