<?xml version="1.0" encoding="utf-8"?>
<!-- Generator: Adobe Illustrator 21.0.0, SVG Export Plug-In . SVG Version: 6.00 Build 0)  -->
<svg version="1.1" id="Icons" xmlns="http://www.w3.org/2000/svg" xmlns:xlink="http://www.w3.org/1999/xlink" x="0px" y="0px"
	 viewBox="0 0 26.9 26.9" style="enable-background:new 0 0 26.9 26.9;" xml:space="preserve">
<g>
	<path d="M21.9,26.2H3.6c-2,0-3.6-1.6-3.6-3.6V3.6c0-0.4,0.3-0.8,0.8-0.8s0.8,0.3,0.8,0.8v19.1
		c0,1.1,0.9,2.1,2.1,2.1h18.4c1.1,0,2.1-0.9,2.1-2.1c0-0.4,0.3-0.8,0.8-0.8s0.8,0.3,0.8,0.8C25.5,24.6,23.9,26.2,21.9,26.2z"/>
	<path d="M24.7,9.3c-0.4,0-0.8-0.3-0.8-0.8c0-1.1-0.9-2.1-2.1-2.1H2.9C1.3,6.4,0,5.2,0,3.6s1.3-2.9,2.9-2.9
		h17.6c0.4,0,0.8,0.3,0.8,0.8s-0.3,0.7-0.8,0.7H2.9c-0.8,0-1.4,0.6-1.4,1.4s0.6,1.4,1.4,1.4h19.1c2,0,3.6,1.6,3.6,3.6
		C25.5,8.9,25.2,9.3,24.7,9.3z"/>
	<path d="M24.7,13.5c-0.4,0-0.8-0.3-0.8-0.8V8.5c0-0.4,0.3-0.8,0.8-0.8s0.8,0.3,0.8,0.8v4.2
		C25.5,13.2,25.2,13.5,24.7,13.5z"/>
	<path d="M24.7,23.4c-0.4,0-0.8-0.3-0.8-0.8v-4.2c0-0.4,0.3-0.8,0.8-0.8s0.8,0.3,0.8,0.8v4.2
		C25.5,23,25.2,23.4,24.7,23.4z"/>
</g>
<path d="M25.2,19.1h-4.1c-1.5,0-2.8-1.2-2.8-2.8v-1.6c0-1.5,1.2-2.8,2.8-2.8h4.1c1,0,1.8,0.8,1.8,1.8v3.6
	C26.9,18.4,26.1,19.1,25.2,19.1z M21.1,13.5c-0.7,0-1.3,0.6-1.3,1.3v1.6c0,0.7,0.6,1.3,1.3,1.3h4.1c0.1,0,0.3-0.1,0.3-0.3v-3.6
	c0-0.1-0.1-0.3-0.3-0.3H21.1z"/>
</svg>
