<?xml version="1.0" encoding="utf-8"?>
<!-- Generator: Adobe Illustrator 21.0.0, SVG Export Plug-In . SVG Version: 6.00 Build 0)  -->
<svg version="1.1" id="Layer_1" xmlns="http://www.w3.org/2000/svg" xmlns:xlink="http://www.w3.org/1999/xlink" x="0px" y="0px"
	 viewBox="0 0 19.5 19.5" style="enable-background:new 0 0 19.5 19.5;" xml:space="preserve">
<g>
	<path d="M16.8,19.5h-14c-1.5,0-2.8-1.2-2.8-2.8v-14C0,1.2,1.2,0,2.8,0h14c1.5,0,2.8,1.2,2.8,2.8v14
		C19.5,18.3,18.3,19.5,16.8,19.5z M2.8,1.5c-0.7,0-1.3,0.6-1.3,1.3v14c0,0.7,0.6,1.3,1.3,1.3h14c0.7,0,1.3-0.6,1.3-1.3v-14
		c0-0.7-0.6-1.3-1.3-1.3H2.8z"/>
	<path d="M9.8,19.5c-0.4,0-0.8-0.3-0.8-0.8v-18C9,0.4,9.3,0,9.8,0s0.8,0.3,0.8,0.8v18
		C10.5,19.2,10.2,19.5,9.8,19.5z"/>
	<path d="M18.7,8.7h-9C9.3,8.7,9,8.4,9,8s0.3-0.8,0.8-0.8h9c0.4,0,0.8,0.3,0.8,0.8S19.2,8.7,18.7,8.7z"/>
	<path d="M9.8,13.2h-9c-0.4,0-0.8-0.3-0.8-0.8s0.3-0.8,0.8-0.8h9c0.4,0,0.8,0.3,0.8,0.8S10.2,13.2,9.8,13.2z"
		/>
</g>
</svg>
