<?xml version="1.0" encoding="utf-8"?>
<!-- Generator: Adobe Illustrator 21.0.0, SVG Export Plug-In . SVG Version: 6.00 Build 0)  -->
<svg version="1.1" id="Слой_8" xmlns="http://www.w3.org/2000/svg" xmlns:xlink="http://www.w3.org/1999/xlink" x="0px" y="0px"
	 viewBox="0 0 260.6 186" style="enable-background:new 0 0 260.6 186;" xml:space="preserve">
<style type="text/css">
	.st0{fill:#3FC6F1;}
</style>
<path class="st0" d="M260.6,116.6c0-29.7-18.7-55-44.9-65C200,20.2,167.7,0,132.4,0c-51.1,0-92.7,41.4-93,92.5
	C17.1,96.2,0,115.6,0,138.9c0,26,21.1,47.1,47.1,47.1h144.1C229.5,186,260.6,154.8,260.6,116.6z M15,138.9
	c0-17.7,14.4-32.1,32.1-32.1H157c-7.9,8.4-12.7,19.7-12.7,32.1c0,11.6,4.2,22.7,11.9,31.3c0.2,0.3,0.5,0.5,0.8,0.8H47.1
	C29.4,171.1,15,156.7,15,138.9z M191.1,171.1c-0.2,0-0.3,0-0.5,0l0,0c-0.1,0-0.2,0-0.3,0s-0.2,0-0.2,0c-8.8-0.4-16.8-4.2-22.7-10.7
	l0,0c-5.2-5.9-8.1-13.5-8.1-21.3c0-17.7,14.4-32.1,32.1-32.1c1.2,0,2.3,0.1,3.3,0.2c4.1,0.5,7.8-2.5,8.3-6.6s-2.5-7.8-6.6-8.3
	C194.8,92.1,54.3,92,54.3,92c0.7-42.5,35.4-76.8,78-76.8c25.2,0,48.7,12.3,63.2,32.3c-1.5-0.1-2.9-0.2-4.4-0.2
	c-7.7,0-15.3,1.3-22.6,3.8c-3.9,1.3-6,5.6-4.7,9.5s5.6,6,9.5,4.7c5.7-2,11.6-2.9,17.7-2.9c30,0,54.5,24.4,54.5,54.5
	C245.6,146.6,221.2,171.1,191.1,171.1z"/>
</svg>
