<?xml version="1.0" encoding="utf-8"?>
<!-- Generator: Adobe Illustrator 21.0.0, SVG Export Plug-In . SVG Version: 6.00 Build 0)  -->
<svg version="1.1" id="Слой_8" xmlns="http://www.w3.org/2000/svg" xmlns:xlink="http://www.w3.org/1999/xlink" x="0px" y="0px"
	 viewBox="0 0 678.4 186.1" style="enable-background:new 0 0 678.4 186.1;" xml:space="preserve">
<style type="text/css">
	.st0{fill:#FFFFFF;}
	.st1{fill:#3FC6F1;}
</style>
<g>
	<g>
		<g>
			<g>
				<path class="st0" d="M352.5,162.1c-16.9,0-30.6-5.3-40.8-15.6c-10.2-10.4-15.3-23.8-15.3-39.9c0-15.7,5.3-28.9,15.8-39.3
					c10.5-10.4,24-15.7,40.3-15.7c7.5,0,14.8,1.3,21.9,3.8c6.8,2.4,12.7,6,17.6,10.7l-11.3,18.4c-3.5-3-7.6-5.4-12.2-7.4
					c-5-2.1-10-3.2-14.8-3.2c-10.4,0-18.4,3.2-23.8,9.4c-5.3,6.2-8,13.8-8,22.7c0,9,2.8,17,8.2,23.6c5.5,6.7,13.4,10.1,23.5,10.1
					c10.3,0,19.9-4.3,28.8-12.9l12.5,17.8C383.7,156.2,369.3,162.1,352.5,162.1z"/>
			</g>
			<g>
				<path class="st0" d="M522.5,160.2l-3.4-67.3h-2l-0.2,0.7c-2.2,7-15.3,43.7-17.3,49.1h-21.4l-17.5-49.8h-2l-3.4,67.3h-24.8
					l8.8-106.9h27.3l21.3,64h1.8l0.2-0.7c1.9-6.8,18.9-56.8,21.1-63.2h27.3l8.7,106.9H522.5z"/>
			</g>
			<g>
				<path class="st0" d="M635.8,162.1c-16.9,0-30.6-5.3-40.8-15.6c-10.2-10.4-15.3-23.8-15.3-39.9c0-15.7,5.3-28.9,15.8-39.3
					c10.5-10.4,24-15.7,40.3-15.7c7.5,0,14.8,1.3,21.9,3.8c6.8,2.4,12.7,6,17.6,10.7l-11.3,18.4c-3.5-3-7.6-5.4-12.2-7.4
					c-5-2.1-10-3.2-14.8-3.2c-10.4,0-18.4,3.2-23.8,9.4c-5.3,6.2-8,13.8-8,22.7c0,9,2.8,17,8.2,23.6c5.5,6.7,13.4,10.1,23.5,10.1
					c10.3,0,19.9-4.3,28.8-12.9l12.5,17.8C667,156.2,652.6,162.1,635.8,162.1z"/>
			</g>
		</g>
	</g>
	<g>
		<path class="st1" d="M260.6,116.6c0-29.7-18.7-55-44.9-65C200,20.2,167.7,0,132.4,0c-51.1,0-92.7,41.4-93,92.5
			C17.1,96.2,0,115.6,0,138.9c0,26,21.1,47.1,47.1,47.1c0,0,144.1,0,144.1,0C229.5,186,260.6,154.8,260.6,116.6z M15,138.9
			c0-17.7,14.4-32.1,32.1-32.1H157c-7.9,8.4-12.7,19.7-12.7,32.1c0,11.6,4.2,22.7,11.9,31.3c0.2,0.3,0.5,0.5,0.8,0.8H47.1
			C29.4,171.1,15,156.7,15,138.9z M191.1,171.1c-0.2,0-0.3,0-0.5,0c0,0,0,0,0,0c-0.1,0-0.2,0-0.3,0c-0.1,0-0.2,0-0.2,0
			c-8.8-0.4-16.8-4.2-22.7-10.7c0,0,0,0,0,0c-5.2-5.9-8.1-13.5-8.1-21.3c0-17.7,14.4-32.1,32.1-32.1c1.2,0,2.3,0.1,3.3,0.2
			c4.1,0.5,7.8-2.5,8.3-6.6s-2.5-7.8-6.6-8.3c-1.6-0.2-142.1-0.3-142.1-0.3c0.7-42.5,35.4-76.8,78-76.8c25.2,0,48.7,12.3,63.2,32.3
			c-1.5-0.1-2.9-0.2-4.4-0.2c-7.7,0-15.3,1.3-22.6,3.8c-3.9,1.3-6,5.6-4.7,9.5c1.3,3.9,5.6,6,9.5,4.7c5.7-2,11.6-2.9,17.7-2.9
			c30,0,54.5,24.4,54.5,54.5C245.6,146.6,221.2,171.1,191.1,171.1z"/>
	</g>
</g>
</svg>
