<?xml version="1.0" encoding="utf-8"?>
<!-- Generator: Adobe Illustrator 21.0.0, SVG Export Plug-In . SVG Version: 6.00 Build 0)  -->
<svg version="1.1" id="Layer_1" xmlns="http://www.w3.org/2000/svg" xmlns:xlink="http://www.w3.org/1999/xlink" x="0px" y="0px"
	 viewBox="0 0 21.3 21.3" style="enable-background:new 0 0 21.3 21.3;" xml:space="preserve">
<g>
	<path d="M6,18.9c-0.4,0-0.7-0.2-1-0.5l-4.7-5.9c-0.4-0.5-0.4-1.3,0.2-1.8C1,10.3,1.8,10.4,2.2,11L7,16.8c0.4,0.5,0.4,1.3-0.2,1.8
		C6.6,18.8,6.3,18.9,6,18.9z"/>
	<path d="M6,18.9c-0.3,0-0.6-0.1-0.9-0.4c-0.5-0.5-0.5-1.3,0-1.8l14-14c0.5-0.5,1.3-0.5,1.8,0s0.5,1.3,0,1.8l-14,14
		C6.6,18.8,6.3,18.9,6,18.9z"/>
</g>
</svg>
