<?xml version="1.0" encoding="UTF-8"?><!DOCTYPE svg PUBLIC "-//W3C//DTD SVG 1.1//EN" "http://www.w3.org/Graphics/SVG/1.1/DTD/svg11.dtd"><svg xmlns="http://www.w3.org/2000/svg" xmlns:xlink="http://www.w3.org/1999/xlink"><defs>
        <path id="a" d="M.5 0H20v20.5H.5z"/>
    </defs><symbol id="icon-attention-circle" viewBox="0 0 512 512">
    <path d="M256 0C114.613 0 0 114.617 0 256c0 141.391 114.613 256 256 256s256-114.609 256-256C512 114.617 397.387 0 256 0zm0 384c-17.674 0-32-14.32-32-32 0-17.672 14.326-32 32-32s32 14.328 32 32c0 17.68-14.326 32-32 32zm32-112h-64l-16-128c0-8.836 7.164-16 16-16h64c8.836 0 16 7.164 16 16l-16 128z"/>
</symbol><symbol id="icon-bell-fill" viewBox="0 0 23.5 23.5">
    <path d="M11.7 23.5c-1.9 0-3.5-1.6-3.5-3.5v-.5c0-.4.3-.8.8-.8s.8.3.8.8v.5c0 1.1.9 2 2 2s2-.9 2-2v-.5c0-.4.3-.8.8-.8s.8.3.8.8v.5c-.2 1.9-1.7 3.5-3.7 3.5z"/>
    <path d="M13.9 4.7c-.4 0-.7-.3-.7-.7V2.5c0-.6-.5-1.1-1.1-1.1h-.8c-.6 0-1.1.5-1.1 1.1V4c0 .4-.3.7-.7.7s-.7-.3-.7-.7V2.5C8.8 1.1 9.9 0 11.3 0h.8c1.4 0 2.5 1.1 2.5 2.5V4c.1.4-.3.7-.7.7z"/>
    <g>
        <path d="M18.3 9.5c0-3-2.5-5.5-5.5-5.5h-2.2c-3 0-5.5 2.5-5.5 5.5v3.4c0 .6-.3 1.2-.7 1.7l-.9.9c-.4.4-.6 1-.6 1.6v1.2c0 .7.5 1.2 1.2 1.2h15.2c.7 0 1.2-.5 1.2-1.2V17c0-.6-.2-1.1-.6-1.6l-.9-.8c-.5-.5-.7-1.1-.7-1.7V9.5z"/>
        <path d="M19.3 20.2H4.1c-1.1 0-1.9-.9-1.9-2V17c0-.8.3-1.5.9-2.1L4 14c.3-.3.5-.7.5-1.2V9.5c0-3.4 2.8-6.3 6.2-6.3h2.2c3.4 0 6.3 2.8 6.3 6.3v3.4c0 .4.2.9.5 1.2l.9.9c.6.6.9 1.3.9 2.1v1.2c-.2 1-1.1 1.9-2.2 1.9zM10.6 4.8C8 4.8 5.9 6.9 5.9 9.5v3.4c0 .8-.3 1.6-.9 2.2l-.9.9c-.3.3-.4.6-.4 1v1.2c0 .2.2.5.4.5h15.2c.2 0 .4-.2.4-.5V17c0-.4-.2-.8-.4-1l-.9-.9c-.6-.6-.9-1.4-.9-2.2V9.5c0-2.6-2.1-4.7-4.8-4.7h-2.1z"/>
    </g>
</symbol><symbol id="icon-bell" viewBox="0 0 23.5 23.5">
    <path d="M11.7 23.5c-1.9 0-3.5-1.6-3.5-3.5v-.5c0-.4.3-.8.8-.8s.8.3.8.8v.5c0 1.1.9 2 2 2s2-.9 2-2v-.5c0-.4.3-.8.8-.8s.8.3.8.8v.5c-.2 1.9-1.7 3.5-3.7 3.5z"/>
    <path d="M13.9 4.7c-.4 0-.7-.3-.7-.7V2.5c0-.6-.5-1.1-1.1-1.1h-.8c-.6 0-1.1.5-1.1 1.1V4c0 .4-.3.7-.7.7s-.7-.3-.7-.7V2.5C8.8 1.1 9.9 0 11.3 0h.8c1.4 0 2.5 1.1 2.5 2.5V4c.1.4-.3.7-.7.7z"/>
    <path d="M18.3 10.3c-.4 0-.8-.3-.8-.8 0-2.6-2.1-4.7-4.8-4.7h-2.2C8 4.8 5.9 6.9 5.9 9.5c0 .4-.3.8-.8.8s-.7-.4-.7-.8c0-3.4 2.8-6.3 6.2-6.3h2.2c3.4 0 6.3 2.8 6.3 6.3 0 .4-.4.8-.8.8z"/>
    <path d="M19.3 20.2H4.1c-1.1 0-1.9-.9-1.9-2V17c0-.8.3-1.5.9-2.1L4 14c.3-.3.5-.7.5-1.2V9.5c0-.4.3-.8.8-.8s.8.3.8.8v3.4c0 .8-.3 1.6-.9 2.2l-1.1.9c-.3.3-.4.6-.4 1v1.2c0 .2.2.5.4.5h15.2c.2 0 .4-.2.4-.5V17c0-.4-.2-.8-.4-1l-.9-.9c-.6-.6-.9-1.4-.9-2.2V9.5c0-.4.3-.8.8-.8s.8.3.8.8v3.4c0 .4.2.9.5 1.2l.9.9c.6.6.9 1.3.9 2.1v1.2c-.1 1-1 1.9-2.1 1.9z"/>
</symbol><symbol id="icon-blank" viewBox="0 0 19.5 19.5">
    <path d="M14.8 19.5h-10c-1.5 0-2.8-1.2-2.8-2.8v-14C2 1.2 3.2 0 4.8 0H12c.7 0 1.4.3 1.9.8l2.8 2.8c.5.5.8 1.2.8 1.9v11.2c0 1.6-1.2 2.8-2.7 2.8zm-10-18c-.7 0-1.3.6-1.3 1.3v14c0 .7.6 1.3 1.3 1.3h10c.7 0 1.3-.6 1.3-1.3V5.6c0-.3-.1-.7-.4-.9l-2.8-2.8c-.2-.2-.6-.4-.9-.4H4.8z"/>
    <path d="M16.8 6.5h-4c-1 0-1.8-.8-1.8-1.8v-4c0-.4.3-.7.8-.7s.8.3.8.8v4c0 .1.1.3.3.3h4c.4 0 .8.3.8.8s-.5.6-.9.6z"/>
    <path d="M11.8 9.5h-6c-.5 0-.8-.3-.8-.7s.3-.8.8-.8h6c.4 0 .8.3.8.8s-.4.7-.8.7z"/>
    <path d="M11.8 12.5h-6c-.4 0-.8-.3-.8-.8s.3-.7.8-.7h6c.4 0 .8.3.8.8s-.4.7-.8.7z"/>
    <path d="M10.1 15.5H5.8c-.4 0-.8-.3-.8-.8s.3-.7.8-.7h4.3c.4 0 .8.3.8.8s-.4.7-.8.7z"/>
</symbol><symbol id="icon-box" viewBox="0 0 21.7 21.7">
    <path d="M10.8 21.7c-.5 0-1-.1-1.4-.4l-7-4c-.8-.5-1.4-1.4-1.4-2.4V6.8c0-1 .5-1.9 1.4-2.4l7-4c.8-.5 1.9-.5 2.8 0l7 4c.8.5 1.4 1.4 1.4 2.4v8.1c0 1-.5 1.9-1.4 2.4l-7 4c-.4.2-.9.4-1.4.4zm0-20.2c-.2 0-.4.1-.6.2l-7 4c-.4.2-.6.6-.6 1.1v8.1c0 .4.2.9.6 1.1l7 4c.4.2.9.2 1.3 0l7-4c.4-.2.6-.6.6-1.1V6.8c0-.4-.2-.9-.6-1.1l-7-4c-.2-.1-.5-.2-.7-.2z"/>
    <path d="M10.8 11.6c-.1 0-.3 0-.4-.1l-8.7-5c-.4-.2-.5-.7-.3-1 .2-.4.7-.5 1-.3l8.7 5c.4.2.5.7.3 1-.1.2-.3.4-.6.4z"/>
    <path d="M10.8 21.7c-.4 0-.8-.3-.8-.8V10.8c0-.4.3-.8.8-.8s.8.3.8.8v10.1c0 .4-.4.8-.8.8z"/>
    <path d="M10.8 11.6c-.3 0-.5-.1-.7-.4-.2-.4-.1-.8.3-1l8.7-5c.4-.2.8-.1 1 .3.2.4.1.8-.3 1l-8.7 5s-.1.1-.3.1z"/>
    <path d="M15.3 9c-.1 0-.3 0-.4-.1L6 3.7c-.4-.2-.5-.7-.3-1 .2-.4.7-.5 1-.3l9 5.2c.4.2.5.7.3 1-.2.2-.4.4-.7.4z"/>
    <path d="M15.3 12.4c-.4 0-.8-.3-.8-.8V8.2c0-.4.3-.8.8-.8s.8.3.8.8v3.5c0 .4-.4.7-.8.7z"/>
    <path d="M7.9 16.6c-.1 0-.3 0-.4-.1l-3-1.8c-.4-.2-.5-.7-.3-1s.7-.5 1-.3l3 1.8c.4.2.5.7.3 1-.1.2-.4.4-.6.4z"/>
</symbol><symbol id="icon-build" viewBox="0 0 19.5 19.5">
    <path d="M14.8 10.5h-10c-.5 0-.8-.3-.8-.7s.3-.8.8-.8h10c.4 0 .8.3.8.8s-.4.7-.8.7z"/>
    <path d="M14.8 13.5h-10c-.4 0-.8-.3-.8-.8s.3-.7.8-.7h10c.4 0 .8.3.8.8s-.4.7-.8.7z"/>
    <path d="M14.8 16.5h-10c-.4 0-.8-.3-.8-.8s.3-.7.8-.7h10c.4 0 .8.3.8.8s-.4.7-.8.7z"/>
    <path d="M14.8 19.5h-10c-.4 0-.8-.3-.8-.8s.3-.7.8-.7h10c.4 0 .8.3.8.8s-.4.7-.8.7z"/>
    <path d="M.8 6.5c-.3 0-.5-.1-.7-.4-.2-.4-.1-.8.3-1l9-5c.4-.2.8-.1 1 .3.2.4.1.8-.3 1l-9 5c-.1.1-.2.1-.3.1z"/>
    <path d="M.8 19.5c-.4 0-.8-.3-.8-.8v-13c0-.4.3-.7.8-.7s.8.3.8.8v13c-.1.4-.4.7-.8.7z"/>
    <path d="M18.7 6.5c-.1 0-.2 0-.4-.1l-9-5c-.3-.2-.4-.7-.2-1 .2-.4.7-.5 1-.3l9 5c.4.2.5.7.3 1-.1.3-.4.4-.7.4z"/>
    <path d="M18.8 19.5c-.4 0-.8-.3-.8-.8v-13c0-.4.3-.7.8-.7s.8.3.8.8v13c-.1.4-.4.7-.8.7z"/>
    <path d="M4.8 19.5c-.4 0-.8-.3-.8-.8v-9c0-.4.3-.7.8-.7s.8.3.8.8v9c-.1.4-.4.7-.8.7z"/>
    <path d="M14.8 19.5c-.4 0-.8-.3-.8-.8v-9c0-.4.3-.7.8-.7s.8.3.8.8v9c-.1.4-.4.7-.8.7z"/>
    <path d="M11.8 7.5h-4c-.5 0-.8-.3-.8-.7s.3-.8.8-.8h4c.4 0 .8.3.8.8s-.4.7-.8.7z"/>
    <path d="M18.8 19.5H.8c-.4 0-.8-.3-.8-.8s.3-.7.8-.7h18c.4 0 .8.3.8.8s-.4.7-.8.7z"/>
</symbol><symbol id="icon-calendar" viewBox="0 0 13 13">
    <path d="M0 0h3v3H0z"/>
    <path d="M5 0h3v3H5z"/>
    <path d="M10 0h3v3h-3z"/>
    <path d="M0 5h3v3H0z"/>
    <path d="M10 5h3v3h-3z"/>
    <path d="M5 5h3v3H5z"/>
    <path d="M0 10h3v3H0z"/>
    <path d="M5 10h3v3H5z"/>
</symbol><symbol id="icon-chat-fill" viewBox="0 0 23.5 23.5">
    <path d="M10.6 22.7v-3.5C5.4 19 1.8 14.9 1.8 10 1.8 4.9 6.2.7 11.7.7s9.9 4.1 9.9 9.3c0 6.1-5.6 10.3-11 12.7"/>
    <path d="M10.6 23.5c-.1 0-.3 0-.4-.1-.2-.2-.3-.4-.3-.6V20c-5.1-.6-8.8-4.7-8.8-9.9 0-5.5 4.8-10 10.6-10 5.9 0 10.7 4.5 10.7 10 0 7.2-7.2 11.5-11.4 13.4h-.4zm1.1-22c-5 0-9.1 3.8-9.1 8.5s3.4 8.3 8.1 8.5c.4 0 .7.3.7.7v2.3c4-2 9.5-5.7 9.5-11.6 0-4.6-4.1-8.4-9.2-8.4z"/>
</symbol><symbol id="icon-chat" viewBox="0 0 23.5 23.5">
    <path d="M10.6 23.5c-.1 0-.3 0-.4-.1-.2-.2-.3-.4-.3-.6V20c-5.1-.6-8.8-4.7-8.8-9.9 0-5.5 4.8-10 10.6-10 5.9 0 10.7 4.5 10.7 10 0 7.2-7.2 11.5-11.4 13.4h-.4zm1.1-22c-5 0-9.1 3.8-9.1 8.5s3.4 8.3 8.1 8.5c.4 0 .7.3.7.7v2.3c4-2 9.5-5.7 9.5-11.6 0-4.6-4.1-8.4-9.2-8.4z"/>
</symbol><symbol id="icon-check-circle" viewBox="0 0 19.5 19.5">
    <path d="M9.8 19.5C4.4 19.5 0 15.1 0 9.8S4.4 0 9.8 0s9.8 4.4 9.8 9.8-4.5 9.7-9.8 9.7zm0-18c-4.5 0-8.3 3.7-8.3 8.3S5.2 18 9.8 18 18 14.3 18 9.8s-3.7-8.3-8.2-8.3z"/>
    <path d="M8.8 13.5c-.2 0-.4-.1-.5-.2l-3-3c-.3-.3-.3-.8 0-1.1s.8-.3 1.1 0l3 3c.3.3.3.8 0 1.1-.3.1-.5.2-.6.2z"/>
    <path d="M8.8 13.5c-.2 0-.4-.1-.5-.2-.3-.3-.3-.8 0-1.1l5-5c.3-.3.8-.3 1.1 0s.3.8 0 1.1l-5 5c-.3.1-.5.2-.6.2z"/>
</symbol><symbol id="icon-check" viewBox="0 0 9.5 9.5">
    <path d="M3.8 8c-.2 0-.4-.1-.6-.2l-3-3c-.3-.3-.3-.8 0-1.1s.8-.3 1.1 0l3 3c.3.3.3.8 0 1.1-.2.1-.4.2-.5.2z"/>
    <path d="M3.8 8c-.2 0-.4-.1-.6-.2-.3-.3-.3-.8 0-1.1l5-5c.3-.3.8-.3 1.1 0s.3.8 0 1.1l-5 5c-.2.1-.4.2-.5.2z"/>
</symbol><symbol id="icon-close-circle" viewBox="0 0 19.5 19.5">
    <path d="M6.9 13.3c-.2 0-.4-.1-.5-.2-.3-.3-.3-.8 0-1.1L12 6.4c.3-.3.8-.3 1.1 0s.3.8 0 1.1l-5.7 5.7c-.1.1-.3.1-.5.1z"/>
    <path d="M12.6 13.3c-.2 0-.4-.1-.5-.2L6.4 7.5c-.3-.3-.3-.8 0-1.1s.8-.3 1.1 0l5.7 5.7c.3.3.3.8 0 1.1-.2.1-.4.1-.6.1z"/>
    <path d="M9.8 19.5C4.4 19.5 0 15.1 0 9.8S4.4 0 9.8 0s9.8 4.4 9.8 9.8-4.5 9.7-9.8 9.7zm0-18c-4.5 0-8.3 3.7-8.3 8.3S5.2 18 9.8 18 18 14.3 18 9.8s-3.7-8.3-8.2-8.3z"/>
</symbol><symbol id="icon-close" viewBox="0 0 6.1 6.1">
    <path d="M5.6 6.1c-.1 0-.3 0-.4-.1L.1.9C0 .7 0 .3.1.1s.5-.2.7 0L6 5.3c.2.2.2.5 0 .7-.1.1-.2.1-.4.1z"/>
    <path d="M.5 6.1c-.1 0-.3 0-.4-.1-.1-.2-.1-.5 0-.7L5.2.2c.3-.2.6-.2.8-.1s.2.5 0 .7L.9 6c-.1.1-.3.1-.4.1z"/>
</symbol><symbol id="icon-coge-fill" viewBox="0 0 23.5 23.5">
    <path d="M22.3 13.8l-1.6-1.3v-.7-.7l1.6-1.3c.7-.6.9-1.6.5-2.4l-1.7-3c-.5-.8-1.4-1.1-2.3-.8l-1.8.7c-.1.1-.3 0-.3-.1-.3-.2-.6-.4-.9-.5-.1 0-.2-.1-.2-.3l-.3-1.8C15.2.7 14.4 0 13.5 0H10c-.9 0-1.7.7-1.8 1.6l-.3 1.8c0 .2-.2.2-.2.3-.3.2-.6.3-.9.5-.1.1-.2.1-.3.1l-1.8-.7c-.8-.3-1.8 0-2.3.8l-1.7 3c-.4.8-.2 1.8.5 2.3L2.8 11v1.4l-1.6 1.3c-.7.6-.9 1.6-.5 2.4l1.7 3c.5.8 1.4 1.1 2.3.8l1.7-.7c.1 0 .2 0 .3.1.3.2.6.4.9.5.1 0 .2.1.2.3l.3 1.8c.1.9.9 1.6 1.8 1.6h3.4c.9 0 1.7-.7 1.8-1.6l.3-1.8c0-.2.2-.2.2-.3.3-.2.6-.3.9-.5.1 0 .2-.1.3-.1l1.7.7c.8.3 1.8 0 2.3-.8l1.7-3c.7-.8.5-1.8-.2-2.3zm-6.5-2c0 2.2-1.8 4-4 4s-4-1.8-4-4 1.8-4 4-4 4 1.7 4 4z"/>
</symbol><symbol id="icon-coge" viewBox="0 0 23.5 23.5">
    <path d="M15 12.5c-.4 0-.8-.3-.8-.8 0-1.4-1.1-2.5-2.5-2.5s-2.5 1.1-2.5 2.5c0 .4-.3.8-.8.8s-.7-.3-.7-.8c0-2.2 1.8-4 4-4s4 1.8 4 4c.1.5-.2.8-.7.8z"/>
    <path d="M15 12.5c-.4 0-.8-.3-.8-.8 0-1.4-1.1-2.5-2.5-2.5s-2.5 1.1-2.5 2.5c0 .4-.3.8-.8.8s-.7-.3-.7-.8c0-2.2 1.8-4 4-4s4 1.8 4 4c.1.5-.2.8-.7.8z"/>
    <path d="M11.8 15.8c-2.2 0-4-1.8-4-4.1-.1-.4.2-.7.7-.7s.8.3.8.8c0 1.4 1.1 2.6 2.5 2.6s2.5-1.1 2.5-2.6c0-.4.3-.8.8-.8s.8.3.8.8c-.1 2.2-1.9 4-4.1 4z"/>
    <path d="M20 12.5c-.4 0-.8-.3-.8-.8 0-.3 0-.6-.1-1 0-.3.1-.5.3-.7l1.9-1.5c.1-.1.2-.3.1-.4l-1.7-3c0-.1-.2-.2-.4-.1l-1.7.7c-.6.2-1.2.2-1.7-.2-.2-.2-.5-.3-.8-.4-.6-.3-.9-.8-1-1.4l-.3-1.8c0-.2-.2-.3-.3-.3H10c-.2 0-.3.1-.3.3l-.3 1.7c-.1.6-.4 1.2-1 1.4-.3.2-.5.3-.8.5-.5.3-1.1.4-1.7.2L4.2 5c-.2-.1-.4 0-.5.1L2 8.1c-.1.2 0 .4.1.5L4 10.1c.2.2.3.4.3.7 0 .4-.1.7-.1 1 0 .4-.3.8-.8.8s-.8-.3-.8-.8v-.7L1.2 9.7C.5 9.2.3 8.2.7 7.4l1.7-3c.5-.8 1.4-1.1 2.3-.8l1.7.7c.1 0 .2 0 .3-.1.4-.2.7-.3 1-.5.1 0 .2-.1.2-.3l.3-1.8C8.3.7 9.1 0 10 0h3.4c.9 0 1.7.7 1.8 1.6l.3 1.8c0 .2.2.2.2.3.3.2.6.3.9.5.1 0 .2.1.3.1l1.7-.7c.8-.3 1.8 0 2.3.8l1.7 3c.5.8.3 1.8-.5 2.4L20.7 11v.7c.1.5-.3.8-.7.8z"/>
    <path d="M13.5 23.5H10c-.9 0-1.7-.7-1.8-1.6l-.3-1.8c0-.2-.2-.2-.2-.3-.3-.2-.6-.3-.9-.5-.1-.1-.2-.1-.3-.1l-1.7.7c-.8.3-1.8 0-2.3-.8l-1.7-3c-.5-.8-.3-1.8.5-2.4l1.6-1.3v-.7c0-.4.3-.8.8-.8s.8.3.8.8c0 .3 0 .6.1 1 0 .3-.1.5-.3.7l-1.9 1.5c-.4.1-.5.3-.4.5l1.7 3c.1.1.3.2.4.1l1.7-.7c.6-.2 1.2-.2 1.7.2.2.2.5.3.8.4.6.3.9.8 1 1.4l.3 1.9c0 .2.2.3.3.3h3.4c.2 0 .3-.1.3-.3l.3-1.8c.1-.6.5-1.1 1-1.4.3-.1.5-.3.8-.4.5-.3 1.2-.4 1.7-.2l1.7.7c.2.1.3 0 .4-.1l1.7-3c.1-.1 0-.3-.1-.4l-1.9-1.5c-.2-.2-.3-.4-.3-.7 0-.4.1-.7.1-1 0-.4.3-.8.8-.8s.8.3.8.8v.7l1.6 1.3c.7.6.9 1.6.5 2.4l-1.7 3c-.5.8-1.4 1.1-2.3.8l-1.7-.9c-.1-.1-.3 0-.3.1-.3.2-.6.4-.9.5-.1 0-.2.1-.2.3l-.3 1.8c-.1.9-.9 1.6-1.8 1.6z"/>
</symbol><symbol id="icon-contract" viewBox="0 0 20.1 19.5">
    <path d="M10.6 11.5H3.7c-.4 0-.8-.3-.8-.8s.4-.7.8-.7h6.9c.4 0 .8.3.8.8s-.4.7-.8.7z"/>
    <path d="M7.6 14.5H3.8c-.4 0-.8-.3-.8-.8s.3-.7.8-.7h3.9c.4 0 .8.3.8.8s-.4.7-.9.7z"/>
    <path d="M7.6 19.5H2.7c-1.5 0-2.7-1.2-2.7-2.8v-14C0 1.2 1.2 0 2.7 0h10.1c1.5 0 2.7 1.2 2.7 2.8v6c0 .4-.3.8-.8.8s-.7-.4-.7-.8v-6c0-.7-.5-1.3-1.2-1.3H2.7c-.7 0-1.2.6-1.2 1.3v14c0 .6.5 1.2 1.2 1.2h4.9c.4 0 .8.3.8.8s-.3.7-.8.7z"/>
    <path d="M12.8 19.5h-2c-.4 0-.8-.3-.8-.8v-2c0-.2.1-.4.2-.5l6.3-6.3c.7-.7 1.8-.7 2.5 0l.6.6c.7.7.7 1.8 0 2.5l-6.3 6.3c-.2.1-.4.2-.5.2zM11.5 18h.9l6.1-6.1c.1-.1.1-.3 0-.4l-.6-.5c-.1-.1-.2-.1-.4 0l-6.1 6.1v.9zm5.5-7.5z"/>
    <path d="M5.8 8.5c-.1 0-.2 0-.3-.1L4 7.7c-.6-.3-1-.9-1-1.6V4.8C3 3.8 3.8 3 4.8 3h2c1 0 1.8.8 1.8 1.8v1.4c0 .7-.4 1.3-1 1.6l-1.5.6c-.1.1-.2.1-.3.1zm-1-4c-.1 0-.3.1-.3.3v1.4c0 .1.1.2.1.2l1.1.6 1.1-.6c.1-.1.2-.2.2-.3V4.8c0-.1-.1-.3-.3-.3H4.8z"/>
</symbol><symbol id="icon-doc-edit" viewBox="0 0 19.5 19.5">
    <path d="M7.2 15.5H4.7c-.4 0-.8-.3-.8-.8v-2.4c0-.5.2-.9.5-1.2L15.1.5c.7-.7 1.8-.7 2.5 0L19 1.9c.7.7.7 1.8 0 2.5L8.4 15c-.3.3-.8.5-1.2.5zM5.5 14h1.7c.1 0 .1 0 .2-.1L17.9 3.3c.1-.1.1-.2 0-.3l-1.4-1.4c-.1-.1-.2-.1-.4 0L5.6 12.2s-.1.1-.1.2V14z"/>
    <path d="M16.7 6.4c-.2 0-.4-.1-.5-.2l-2.8-2.8c-.3-.3-.3-.8 0-1.1.3-.3.8-.3 1.1 0l2.8 2.8c.3.3.3.8 0 1.1-.3.1-.4.2-.6.2z"/>
    <path d="M16.8 19.5h-14c-1.5 0-2.8-1.2-2.8-2.8v-14C0 1.2 1.2 0 2.8 0h8c.4 0 .8.3.8.8s-.3.8-.8.8h-8c-.7 0-1.3.6-1.3 1.3v14c0 .7.6 1.3 1.3 1.3h14c.7 0 1.3-.6 1.3-1.3v-8c-.1-.6.2-.9.7-.9s.8.3.8.8v8c-.1 1.5-1.3 2.7-2.8 2.7z"/>
</symbol><symbol id="icon-docs-copy" viewBox="0 0 19.2 19.2">
    <path d="M12.6 19.2h-9C2.1 19.2.8 18 .8 16.4V5.6C.9 4.2 2 3 3.5 3h1.1c.4 0 .8.3.8.7s-.4.8-.8.8H3.5c-.6 0-1.1.5-1.1 1.1v10.9c0 .7.6 1.3 1.3 1.3h9c.7 0 1.3-.6 1.3-1.3v-1c0-.4.3-.8.8-.8s.8.3.8.8v1c-.2 1.5-1.5 2.7-3 2.7z"/>
    <path d="M15.6 16.2h-9c-1.5 0-2.8-1.2-2.8-2.8V2.6C3.9 1.2 5 0 6.5 0h6.6c.7 0 1.4.3 1.9.8l2.5 2.5c.5.5.8 1.2.8 1.9v8.2c.1 1.6-1.2 2.8-2.7 2.8zM6.5 1.5c-.6 0-1.1.5-1.1 1.1v10.9c0 .7.6 1.3 1.3 1.3h9c.7 0 1.3-.6 1.3-1.3V5.3c0-.3-.1-.7-.4-.9l-2.5-2.5c-.2-.2-.6-.4-.9-.4H6.5z"/>
    <path d="M17.6 6.1h-3.7c-.9 0-1.7-.8-1.7-1.7V.7c0-.4.3-.7.8-.7s.8.3.8.8v3.7c0 .1.1.2.2.2h3.7c.4 0 .8.3.8.8s-.5.6-.9.6z"/>
</symbol><symbol id="icon-docs" viewBox="0 0 19.5 19.5">
    <path d="M13.7 15.5h-8c-.4 0-.8-.3-.8-.8s.4-.7.9-.7h8c.4 0 .8.3.8.8s-.4.7-.9.7z"/>
    <path d="M13.7 11.5h-8c-.4 0-.8-.3-.8-.8s.4-.7.9-.7h8c.4 0 .8.3.8.8s-.4.7-.9.7z"/>
    <path d="M16.8 19.5h-14c-1.5 0-2.8-1.2-2.8-2.8V5.8C0 4.3 1.2 3 2.8 3h4.5c.6 0 1.1.3 1.4.8l1.4 2.1c0 .1.1.1.2.1h6.5c1.5 0 2.8 1.2 2.8 2.8v8c-.1 1.5-1.3 2.7-2.8 2.7zM2.8 4.6c-.7 0-1.3.6-1.3 1.3v10.9c0 .7.6 1.3 1.3 1.3h14c.7 0 1.3-.6 1.3-1.3v-8c0-.7-.6-1.3-1.3-1.3h-6.5c-.6 0-1.1-.3-1.4-.8l-1.5-2c0-.1-.1-.1-.2-.1H2.8z"/>
    <path d="M16.8 7.5c-.4 0-.8-.3-.8-.8v-4c0-.7-.7-1.3-1.6-1.3H5.1c-.9 0-1.6.6-1.6 1.3v1c0 .4-.3.8-.8.8S2 4.2 2 3.8v-1C2 1.2 3.4 0 5.1 0h9.3c1.7 0 3.1 1.2 3.1 2.8v4c0 .4-.3.7-.7.7z"/>
</symbol><symbol id="icon-envelope" viewBox="0 0 21.5 21.5">
    <path d="M18.8 18.5h-16c-1.5 0-2.8-1.2-2.8-2.8v-10C0 4.2 1.2 3 2.8 3h16c1.5 0 2.8 1.2 2.8 2.8v10c-.1 1.5-1.3 2.7-2.8 2.7zm-16-14c-.7 0-1.3.6-1.3 1.3v10c0 .7.6 1.3 1.3 1.3h16c.7 0 1.3-.6 1.3-1.3v-10c0-.7-.6-1.3-1.3-1.3h-16z"/>
    <path d="M10.9 13.4c-.8 0-1.6-.3-2.3-.8L.4 6.3c-.3-.2-.4-.7-.1-1 .2-.3.7-.4 1-.1l8.2 6.3c.8.6 1.9.6 2.8 0l8-6.3c.3-.3.8-.2 1.1.1.3.3.2.8-.1 1.1l-8 6.3c-.8.4-1.6.7-2.4.7z"/>
    <path d="M20.2 17c-.2 0-.4-.1-.5-.2l-6-5.4c-.3-.3-.3-.8-.1-1.1.3-.3.8-.3 1.1-.1l6 5.4c.3.3.3.8.1 1.1-.2.2-.4.3-.6.3z"/>
    <path d="M1.4 17c-.2 0-.4-.1-.6-.2-.3-.3-.3-.8 0-1.1l6-5.5c.3-.3.8-.3 1.1 0 .3.3.3.8 0 1.1l-6 5.5c-.1.1-.3.2-.5.2z"/>
</symbol><symbol id="icon-exit" viewBox="0 0 19.5 19.5">
    <path d="M9.8 18.5h-7c-1.5 0-2.8-1.2-2.8-2.8v-12C0 2.2 1.2 1 2.8 1h7c1.5 0 2.8 1.2 2.8 2.8v2c0 .4-.3.8-.8.8s-.8-.4-.8-.8v-2c0-.7-.6-1.3-1.3-1.3h-7c-.7 0-1.3.6-1.3 1.3v12c0 .7.6 1.3 1.3 1.3h7c.7 0 1.3-.6 1.3-1.3v-2c0-.4.3-.8.8-.8s.8.3.8.8v2c-.1 1.5-1.3 2.7-2.8 2.7z"/>
    <path d="M18.8 10.5h-11c-.5 0-.8-.3-.8-.7s.3-.8.8-.8h11c.4 0 .8.3.8.8s-.4.7-.8.7z"/>
    <path d="M15.8 13.5c-.2 0-.4-.1-.5-.2-.3-.3-.3-.8 0-1.1l3-3c.3-.3.8-.3 1.1 0s.3.8 0 1.1l-3 3c-.3.1-.5.2-.6.2z"/>
    <path d="M18.8 10.5c-.2 0-.4-.1-.5-.2l-3-3c-.3-.3-.3-.8 0-1.1s.8-.3 1.1 0l3 3c.3.3.3.8 0 1.1-.3.1-.5.2-.6.2z"/>
</symbol><symbol id="icon-flag-circle" viewBox="0 0 21.5 21.5">
    <path d="M10.8 21.5C4.8 21.5 0 16.7 0 10.7 0 4.8 4.8 0 10.8 0s10.8 4.8 10.8 10.8c-.1 5.9-4.9 10.7-10.8 10.7zm0-20c-5.1 0-9.3 4.1-9.3 9.3 0 5.1 4.1 9.2 9.3 9.2s9.3-4.1 9.3-9.2c-.1-5.2-4.2-9.3-9.3-9.3z"/>
    <path d="M15.4 15.5h-4.6c-1 0-1.8-.8-1.8-1.8v-2c0-.4.3-.7.8-.7s.8.3.8.8v2c0 .1.1.3.3.3h4.6c.1 0 .2-.1.2-.1s.1-.1 0-.2L15 12c-.1-.2-.1-.3 0-.5l.6-1.7v-.2s-.1-.1-.2-.1h-3.6c-.4 0-.8-.3-.8-.8s.3-.7.8-.7h3.6c.6 0 1.1.3 1.4.7.3.5.4 1 .2 1.6l-.5 1.4.5 1.4c.2.5.1 1.1-.2 1.6s-.9.8-1.4.8z"/>
    <path d="M10.8 12.5h-5c-.4 0-.8-.3-.8-.8v-4C5 6.8 5.8 6 6.8 6h4c1 0 1.8.8 1.8 1.8v3c-.1.9-.9 1.7-1.8 1.7zM6.5 11h4.3c.1 0 .3-.1.3-.2v-3c0-.1-.1-.3-.3-.3h-4c-.1 0-.3.1-.3.3V11z"/>
    <path d="M5.8 19.4c-.4 0-.8-.3-.8-.8v-6.9c0-.4.3-.7.8-.7s.8.3.8.8v6.9c-.1.4-.4.7-.8.7z"/>
</symbol><symbol id="icon-flag-fill" viewBox="0 0 23.5 23.5">
    <path d="M3.2 23.5c-.4 0-.8-.3-.8-.8V1.9c0-.4.3-.8.8-.8s.8.3.8.8v20.9c-.1.4-.4.7-.8.7z"/>
    <path d="M20.3 15c-.4 0-.8-.3-.8-.8V2c0-.4.3-.8.8-.8s.8.3.8.8v12.3c0 .3-.4.7-.8.7z"/>
    <path d="M16 16.2c-1.7 0-3.2-.6-4.6-1.1-1.3-.5-2.5-1-4-1-2.8 0-3.8.7-3.8.7-.3.2-.8.2-1-.1s-.2-.8.1-1c.1-.1 1.4-1.1 4.8-1.1 1.7 0 3.2.6 4.6 1.1 1.3.5 2.5 1 4 1 2.8 0 3.7-.9 3.7-1 .3-.3.8-.3 1.1 0 .3.3.3.7.1 1-.3.2-1.5 1.5-5 1.5z"/>
    <path d="M16 3.6c-1.7 0-3.2-.6-4.6-1.1-1.3-.5-2.5-1-4-1-2.8 0-3.7.9-3.7.9-.3.3-.7.3-1 0-.3-.3-.3-.7 0-1C2.8 1.2 4 0 7.5 0c1.7 0 3.2.6 4.6 1.1 1.3.5 2.5 1 4 1 2.8 0 3.8-.7 3.8-.7.3-.2.8-.2 1 .1.3.3.2.8-.1 1-.1.2-1.4 1.1-4.8 1.1z"/>
    <path d="M3.3 1.7L3.5 14s1.7-.8 3.7-.7 2.5.2 3.7.6.5.2 1.9.6 2.3.6 2.3.6l1.1.1h2.2s0 .2.6-.1.8-.5.8-.5l.4-1.6.3-7.2s.2-2.3-.4-2.7-1.2-.4-1.2-.4l-2.9.2-2-.2-2.8-1L9.1.9 7 .7l-2.4.5-1.3.5z"/>
</symbol><symbol id="icon-flag" viewBox="0 0 23.5 23.5">
    <path d="M3.2 23.5c-.4 0-.8-.3-.8-.8V1.9c0-.4.3-.8.8-.8s.8.3.8.8v20.9c-.1.4-.4.7-.8.7z"/>
    <path d="M20.3 15c-.4 0-.8-.3-.8-.8V2c0-.4.3-.8.8-.8s.8.3.8.8v12.3c0 .3-.4.7-.8.7z"/>
    <path d="M16 16.2c-1.7 0-3.2-.6-4.6-1.1-1.3-.5-2.5-1-4-1-2.8 0-3.8.7-3.8.7-.3.2-.8.2-1-.1s-.2-.8.1-1c.1-.1 1.4-1.1 4.8-1.1 1.7 0 3.2.6 4.6 1.1 1.3.5 2.5 1 4 1 2.8 0 3.7-.9 3.7-1 .3-.3.8-.3 1.1 0 .3.3.3.7.1 1-.3.2-1.5 1.5-5 1.5z"/>
    <path d="M16 3.6c-1.7 0-3.2-.6-4.6-1.1-1.3-.5-2.5-1-4-1-2.8 0-3.7.9-3.7.9-.3.3-.7.3-1 0-.3-.3-.3-.7 0-1C2.8 1.2 4 0 7.5 0c1.7 0 3.2.6 4.6 1.1 1.3.5 2.5 1 4 1 2.8 0 3.8-.7 3.8-.7.3-.2.8-.2 1 .1.3.3.2.8-.1 1-.1.2-1.4 1.1-4.8 1.1z"/>
</symbol><symbol id="icon-home" viewBox="0 0 19.5 19.5">
    <path d="M17 19.5H2.5C1.1 19.5 0 18.4 0 17V9c0-.8.3-1.5.9-2L9.2.2c.3-.2.7-.2 1 0L18.6 7c.6.5.9 1.2.9 2v8c0 1.4-1.1 2.5-2.5 2.5zM9.8 1.7L1.9 8.2c-.3.2-.4.5-.4.8v8c0 .6.5 1 1 1H17c.6 0 1-.5 1-1V9c0-.3-.1-.6-.4-.8L9.8 1.7zM1.4 7.6z"/>
    <path d="M9.6 16.1c-2.3 0-4.3-1.9-4.3-4.3s1.9-4.3 4.3-4.3 4.3 1.9 4.3 4.3-2 4.3-4.3 4.3zm0-7c-1.5 0-2.8 1.2-2.8 2.8s1.2 2.8 2.8 2.8 2.8-1.2 2.8-2.8-1.3-2.8-2.8-2.8z"/>
</symbol><symbol id="icon-lightning" viewBox="0 0 19.5 19.5">
    <path d="M8.9 19.5c-.1 0-.2 0-.3-.1-.3-.1-.5-.4-.5-.8l.7-6.2H2.4c-.3 0-.5-.2-.7-.4-.1-.3-.1-.6.1-.8L10 .2c.2-.3.6-.4.9-.2.3.1.5.4.5.8L10.6 7h6.5c.3 0 .5.2.7.4.1.3.1.6-.1.8l-8.2 11c-.1.2-.3.3-.6.3zm-5-8.5h5.9c.2 0 .4.1.6.3.1.2.2.4.2.6l-.6 4.2 5.6-7.6H9.8c-.2 0-.4-.1-.6-.3-.2-.1-.2-.3-.2-.5l.5-4.2L3.9 11z"/>
</symbol><symbol id="icon-list" viewBox="0 0 60.123 60.123">
    <path d="M57.124 51.893H16.92a3 3 0 110-6h40.203a3 3 0 01.001 6z"/>
    <path d="M57.124 33.062H16.92a3 3 0 110-6h40.203a3 3 0 01.001 6z"/>
    <path d="M57.124 14.231H16.92a3 3 0 110-6h40.203a3 3 0 01.001 6z"/>
    <circle cx="4.029" cy="11.463" r="4.029"/>
    <circle cx="4.029" cy="30.062" r="4.029"/>
    <circle cx="4.029" cy="48.661" r="4.029"/>
</symbol><symbol id="icon-loupe" viewBox="0 0 15.7 15.7">
    <path d="M6.8 13.4A6.7 6.7 0 116.8 0a6.7 6.7 0 010 13.4zm0-11.9c-2.9 0-5.2 2.3-5.2 5.2s2.3 5.2 5.2 5.2S12 9.6 12 6.7 9.7 1.5 6.8 1.5z"/>
    <path d="M14.8 15.7c-.2 0-.4-.1-.5-.2l-3.9-3.9c-.3-.3-.3-.8 0-1.1.3-.3.8-.3 1.1 0l3.9 3.9c.3.3.3.8 0 1.1-.2.1-.4.2-.6.2z"/>
</symbol><symbol id="icon-minus-circle" viewBox="0 0 19.5 19.5">
    <path d="M13.8 10.5h-8c-.5 0-.8-.3-.8-.7s.3-.8.8-.8h8c.4 0 .8.3.8.8s-.4.7-.8.7z"/>
    <path d="M9.8 19.5C4.4 19.5 0 15.1 0 9.8S4.4 0 9.8 0s9.8 4.4 9.8 9.8-4.5 9.7-9.8 9.7zm0-18c-4.5 0-8.3 3.7-8.3 8.3S5.2 18 9.8 18 18 14.3 18 9.8s-3.7-8.3-8.2-8.3z"/>
</symbol><symbol id="icon-money" viewBox="0 0 19.9 20.5">
    <path d="M12.9 9.5c-1.8 0-3.2-1.3-3.5-3-.1-.4.2-.8.6-.9.4-.1.8.2.9.6.2 1 1 1.7 2.1 1.7 1.1.1 2-.8 2-2s-.9-2.1-2.1-2.1h-.4c-.4.1-.8-.2-.9-.6-.1-.4.2-.8.6-.9.2 0 .4-.1.7-.1 2 0 3.6 1.6 3.6 3.6s-1.6 3.7-3.6 3.7z"/>
    <path d="M10.1 7.1c-.4 0-.7-.3-.7-.6 0-.2-.1-.4-.1-.6 0-1.7 1.2-3.2 2.9-3.5.4-.1.8.2.9.6.1.4-.2.8-.6.9-1 .2-1.7 1-1.7 2v.3c.1.4-.2.8-.6.9h-.1z"/>
    <path d="M9.6 7.2C7.6 7.2 6 5.6 6 3.6S7.6 0 9.6 0c1.8 0 3.2 1.3 3.5 3 .1.4-.2.8-.6.9-.4.1-.8-.2-.9-.6-.2-1-1-1.7-2.1-1.7-1.2 0-2.1.9-2.1 2.1 0 1.2.9 2.1 2.1 2.1h.4c.4-.1.8.2.9.6.1.4-.2.8-.6.9-.2-.1-.4-.1-.6-.1z"/>
    <path d="M3.7 20.5h-2c-1 0-1.8-.8-1.8-1.8v-6c0-1 .8-1.8 1.8-1.8h2c1 0 1.8.8 1.8 1.8v6c0 1-.8 1.8-1.8 1.8zm-2-8c-.1 0-.3.1-.3.3v6c0 .1.1.3.3.3h2c.2-.1.3-.2.3-.3v-6c0-.1-.1-.3-.3-.3h-2z"/>
    <path d="M10.9 20.4c-.4 0-.8 0-1.2-.1L7 19.6c-.3-.1-.5-.1-.8-.1H4.7c-.4 0-.8-.3-.8-.8s.4-.7.8-.7h1.5c.4 0 .8 0 1.2.1l2.6.7c.5.1 1 .1 1.4 0l2.9-.6c.6-.1 1.2-.4 1.7-.9l2.1-2.1c.3-.3.3-.8 0-1.1-.3-.3-.7-.3-1-.1l-2.4 2c-.5.4-1.1.5-1.6.5h-2.3c-.4 0-.8-.3-.8-.8s.3-.8.8-.8h2.3c.3 0 .5-.1.7-.2l2.4-1.8c.9-.7 2.2-.6 3 .2.9.9.9 2.3 0 3.2l-2.1 2.1c-.7.7-1.5 1.1-2.4 1.3l-2.9.6c-.3.1-.6.1-.9.1z"/>
    <path d="M12.2 16.5h-1.5c-.4 0-.8-.3-.8-.8s.3-.8.8-.8h1.5c.4 0 .8-.3.8-.8v-.3c0-.4-.2-.7-.6-.7l-2.3-.6c-1.1-.3-2.2-.1-3.1.5l-1.8 1.2c-.3.2-.8.1-1-.2-.2-.3-.1-.8.2-1l1.8-1.2c1.3-.8 2.9-1.1 4.3-.8l2.3.6c1 .3 1.7 1.2 1.7 2.2v.3c0 1.4-1 2.4-2.3 2.4z"/>
</symbol><symbol id="icon-phone" viewBox="0 0 19.5 19.5">
    <path d="M13.8 19.5c-.3 0-.5 0-.8-.1-2.9-.5-5.9-2.2-8.3-4.7C2.2 12.2.6 9.3 0 6.4c-.2-1.3.1-2.6 1.1-3.5l.7-.7c1.1-1.1 2.8-1.1 3.9 0l1.2 1.2c.9.9.9 2.3-.1 3.3l-.9.9c.6 1.3 1.4 2.5 2.5 3.6s2.3 1.9 3.6 2.5l.9-.9c.9-.9 2.3-.9 3.2 0l1.2 1.2c.5.5.8 1.2.8 1.9s-.3 1.4-.8 1.9l-.7.7c-.7.6-1.7 1-2.8 1zM3.7 3c-.3 0-.6.1-.9.4l-.6.6c-.6.6-.8 1.4-.7 2.2.5 2.6 2 5.3 4.3 7.5 2.3 2.3 4.9 3.8 7.5 4.3.8.2 1.6-.1 2.2-.6l.7-.7c.2-.2.4-.5.4-.9s-.1-.6-.4-.9L15 13.8c-.3-.3-.8-.3-1.1 0l-.9.9c-.4.4-1.1.6-1.6.3-1.5-.6-2.9-1.6-4.1-2.8-1.2-1.2-2.2-2.6-2.8-4-.2-.6-.1-1.3.4-1.7l.8-.8c.4-.4.4-.8.1-1.1L4.6 3.4C4.4 3.1 4 3 3.7 3z"/>
    <path d="M13.6 6.7c-.2 0-.4-.1-.5-.2-.6-.6-1.4-1-2.3-.9-.4 0-.8-.3-.8-.7 0-.5.3-.9.7-.9 1.3 0 2.5.5 3.4 1.4.3.3.3.8 0 1.1-.1.1-.3.2-.5.2z"/>
    <path d="M16.4 3.9c-.2 0-.4-.1-.5-.2-1.4-1.4-3.2-2.1-5.2-2.1-.4 0-.8-.3-.8-.8s.4-.8.8-.8c2.3 0 4.6.9 6.2 2.6.3.3.3.8 0 1.1-.1.1-.3.2-.5.2z"/>
    <path d="M14.8 9.5c-.4 0-.8-.3-.8-.8 0-.9-.3-1.7-.9-2.3-.3-.3-.3-.8 0-1.1.3-.3.8-.3 1.1 0 .9.9 1.4 2.1 1.4 3.4-.1.5-.4.8-.8.8z"/>
    <path d="M18.8 9.5c-.4 0-.8-.3-.8-.8 0-1.9-.8-3.8-2.1-5.2-.3-.3-.3-.8 0-1.1s.8-.3 1.1 0c1.7 1.7 2.6 3.9 2.6 6.2-.1.6-.4.9-.8.9z"/>
</symbol><symbol id="icon-plus" viewBox="0 0 357 357">
    <path d="M357 204H204v153h-51V204H0v-51h153V0h51v153h153v51z"/>
</symbol><symbol id="icon-question-circle" viewBox="0 0 438.533 438.533">
    <path d="M409.133 109.203c-19.608-33.592-46.205-60.189-79.798-79.796C295.736 9.801 259.058 0 219.273 0c-39.781 0-76.47 9.801-110.063 29.407-33.595 19.604-60.192 46.201-79.8 79.796C9.801 142.8 0 179.489 0 219.267c0 39.78 9.804 76.463 29.407 110.062 19.607 33.592 46.204 60.189 79.799 79.798 33.597 19.605 70.283 29.407 110.063 29.407s76.47-9.802 110.065-29.407c33.593-19.602 60.189-46.206 79.795-79.798 19.603-33.596 29.403-70.284 29.403-110.062.001-39.782-9.8-76.472-29.399-110.064zM255.82 356.309c0 2.662-.862 4.853-2.573 6.563-1.704 1.711-3.895 2.567-6.557 2.567h-54.823c-2.664 0-4.854-.856-6.567-2.567-1.714-1.711-2.57-3.901-2.57-6.563v-54.823c0-2.662.855-4.853 2.57-6.563 1.713-1.708 3.903-2.563 6.567-2.563h54.823c2.662 0 4.853.855 6.557 2.563 1.711 1.711 2.573 3.901 2.573 6.563v54.823zm69.518-168.735c-2.382 7.043-5.044 12.804-7.994 17.275-2.949 4.473-7.187 9.042-12.709 13.703-5.51 4.663-9.891 7.996-13.135 9.998-3.23 1.995-7.898 4.713-13.982 8.135-6.283 3.613-11.465 8.326-15.555 14.134-4.093 5.804-6.139 10.513-6.139 14.126 0 2.67-.862 4.859-2.574 6.571-1.707 1.711-3.897 2.566-6.56 2.566h-54.82c-2.664 0-4.854-.855-6.567-2.566-1.715-1.712-2.568-3.901-2.568-6.571v-10.279c0-12.752 4.993-24.701 14.987-35.832 9.994-11.136 20.986-19.368 32.979-24.698 9.13-4.186 15.604-8.47 19.41-12.847 3.812-4.377 5.715-10.188 5.715-17.417 0-6.283-3.572-11.897-10.711-16.849-7.139-4.947-15.27-7.421-24.409-7.421-9.9 0-18.082 2.285-24.555 6.855-6.283 4.565-14.465 13.322-24.554 26.263-1.713 2.286-4.093 3.431-7.139 3.431-2.284 0-4.093-.57-5.424-1.709L121.35 145.89c-4.377-3.427-5.138-7.422-2.286-11.991 24.366-40.542 59.672-60.813 105.922-60.813 16.563 0 32.744 3.903 48.541 11.708 15.796 7.801 28.979 18.842 39.546 33.119 10.554 14.272 15.845 29.787 15.845 46.537-.014 8.374-1.208 16.079-3.58 23.124z"/>
</symbol><symbol id="icon-report" viewBox="0 0 21.6 21.6">
    <path d="M10.8 17.7h-7c-1.5 0-2.7-1.3-2.7-2.9V2.9C1.1 1.3 2.3 0 3.8 0h10c1.5 0 2.7 1.3 2.7 2.9v9c0 .4-.3.8-.7.8-.4 0-.8-.3-.8-.8v-9c0-.8-.6-1.4-1.3-1.4h-10c-.7 0-1.3.6-1.3 1.4v11.9c0 .8.6 1.4 1.2 1.4h7c.4 0 .7.3.7.8.3.3 0 .7-.5.7z"/>
    <path d="M12.8 8.6h-8c-.4 0-.8-.3-.8-.8 0-.4.3-.8.8-.8h8c.4 0 .8.3.8.8s-.4.8-.8.8z"/>
    <path d="M12.8 5.7h-8c-.4 0-.8-.3-.8-.8s.3-.8.8-.8h8c.4 0 .8.3.8.8s-.4.8-.8.8z"/>
    <path d="M9.8 11.6h-5c-.4 0-.8-.3-.8-.8s.3-.8.8-.8h5c.4 0 .8.3.8.8s-.4.8-.8.8z"/>
    <path d="M15.3 21.6c-2.9 0-5.3-2.4-5.3-5.3s2.4-5.2 5.3-5.2 5.2 2.4 5.2 5.2-2.3 5.3-5.2 5.3zm0-9c-2.1 0-3.8 1.7-3.8 3.7s1.7 3.8 3.8 3.8 3.7-1.7 3.7-3.8-1.6-3.7-3.7-3.7z"/>
    <path d="M15.8 17.6h-2c-.4 0-.8-.3-.8-.8s.3-.8.8-.8h2c.4 0 .7.3.7.8s-.3.8-.7.8z"/>
    <path d="M15.8 17.6c-.4 0-.8-.3-.8-.8v-2c0-.4.3-.8.8-.8.4 0 .7.3.7.8v2c.1.5-.3.8-.7.8z"/>
</symbol><symbol id="icon-rouble" viewBox="0 0 20.5 20.5">
    
    <path d="M16.6 16.6c-.2 0-.4-.1-.5-.2-.3-.3-.3-.8 0-1.1 1.6-1.5 2.4-3.6 2.4-5.7s-.9-4.2-2.4-5.7C12.9.7 7.7.7 4.4 3.9 2.9 5.4 2 7.4 2 9.6s.9 4.2 2.4 5.7c.3.3.3.8 0 1.1-.3.3-.8.3-1.1 0C1.5 14.6.4 12.2.4 9.6c0-2.6 1-5 2.9-6.8 3.8-3.7 10-3.7 13.8 0C19 4.6 20 7 20 9.6c0 2.6-1 5-2.9 6.8-.1.1-.3.2-.5.2z"/>
    <path d="M18.4 20.5h-16c-.4 0-.8-.3-.8-.8s.3-.7.8-.7h16c.4 0 .8.3.8.8s-.4.7-.8.7z"/>
    <path d="M11.6 10.7c-.4 0-.8-.3-.8-.8s.3-.8.8-.8c.8 0 1.4-.6 1.4-1.4 0-.8-.6-1.4-1.4-1.4-.4 0-.8-.3-.8-.8s.4-.5.8-.5c1.6 0 2.9 1.3 2.9 2.9 0 1.6-1.3 2.8-2.9 2.8z"/>
    <path d="M11.8 10.7h-5c-.5 0-.8-.3-.8-.7s.3-.8.8-.8h5c.4 0 .8.3.8.8s-.4.7-.8.7z"/>
    <path d="M11.3 13.5H6.7c-.4 0-.8-.3-.8-.8s.4-.7.8-.7h4.5c.4 0 .8.3.8.8s-.3.7-.7.7z"/>
    <path d="M11.6 6.5H8.4c-.4 0-.7-.3-.7-.7S8 5 8.4 5h3.2c.4 0 .8.3.8.8s-.4.7-.8.7z"/>
    <path d="M8.4 15.5c-.4 0-.8-.3-.8-.8v-9c.1-.4.4-.7.8-.7s.8.3.8.8v9c0 .4-.3.7-.8.7z"/>
</symbol><symbol id="icon-skype" viewBox="0 0 19.5 19.5">
    <path d="M13.7 19.5c-.9 0-1.8-.2-2.6-.6-1.9.3-3.8 0-5.5-.9-2-1-3.7-2.8-4.5-5-.5-1.4-.7-3-.5-4.6C0 7.2-.2 5.8.1 4.6c.3-1.4 1.1-2.7 2.3-3.5C4.1-.1 6.5-.3 8.4.7c2-.3 4 .1 5.7 1 2 1.1 3.6 2.9 4.3 5.1.5 1.4.6 2.9.4 4.3.6 1.2.8 2.5.5 3.8-.3 1.5-1.2 2.8-2.5 3.7-.8.6-2 .9-3.1.9zm-2.5-2.2c.1 0 .3 0 .4.1 1.4.8 3.2.7 4.5-.1 1-.6 1.6-1.6 1.9-2.7.2-1 0-2.1-.5-3-.1-.2-.1-.3-.1-.5.2-1.3.1-2.6-.3-3.8-.6-1.8-1.9-3.4-3.6-4.3-1.5-.8-3.3-1.1-5-.8-.2 0-.4 0-.5-.1-1.5-.9-3.4-.8-4.7.2-.9.6-1.5 1.5-1.7 2.6-.2 1-.1 2.1.5 3 .1.2.1.3.1.5-.3 1.4-.2 2.8.3 4.1.7 1.8 2 3.3 3.7 4.2 1.5.7 3.2 1 4.8.7.1-.1.2-.1.2-.1zM2.9 1.7z"/>
    <path d="M6.8 8.5c-.5 0-.8-.4-.8-.8C6 6.5 7 5 9.8 5c.4 0 .8.3.8.8s-.3.8-.8.8c-1.4-.1-2.3.4-2.3 1.1 0 .4-.3.8-.7.8z"/>
    <path d="M9.8 10.5h-.1l-1.5-.2C6.9 10 6 9 6 7.7c0-.4.3-.7.8-.7s.8.3.8.8.4 1 .9 1l1.4.2c.4.1.7.5.6.9-.1.3-.4.6-.7.6z"/>
    <path d="M12.8 12.5c-.4 0-.8-.3-.8-.8s-.4-1-.9-1l-1.5-.3c-.4 0-.7-.4-.6-.8.1-.4.5-.7.9-.6l1.5.3c1.2.2 2.1 1.3 2.1 2.5 0 .4-.3.7-.7.7z"/>
    <path d="M12.7 8c-.3 0-.6-.2-.7-.5-.2-.5-1-1-2.2-1-.5 0-.8-.3-.8-.8s.3-.7.8-.7c1.7 0 3.2.8 3.6 2 .1.4-.1.8-.5 1h-.2z"/>
    <path d="M9.8 14.5c-.4 0-.8-.3-.8-.8s.3-.7.8-.7c1.4 0 2.3-.5 2.3-1.2 0-.4.3-.8.8-.8s.8.3.8.8c-.2 1.2-1.2 2.7-3.9 2.7z"/>
    <path d="M9.8 14.5c-1.7 0-3.2-.8-3.6-2-.1-.4.1-.8.5-1 .4-.1.8.1 1 .5.2.5 1 1 2.2 1 .4 0 .8.3.8.8s-.5.7-.9.7z"/>
</symbol><symbol id="icon-stats" viewBox="0 0 19.5 19.5">
    <path d="M16.8 19.5h-14c-1.5 0-2.8-1.2-2.8-2.8v-14C0 1.2 1.2 0 2.8 0h14c1.5 0 2.8 1.2 2.8 2.8v14c-.1 1.5-1.3 2.7-2.8 2.7zm-14-18c-.7 0-1.3.6-1.3 1.3v14c0 .7.6 1.3 1.3 1.3h14c.7 0 1.3-.6 1.3-1.3v-14c0-.7-.6-1.3-1.3-1.3h-14z"/>
    <path d="M5.8 15.5c-.4 0-.8-.3-.8-.8v-2c0-.4.3-.7.8-.7s.8.3.8.8v2c-.1.4-.4.7-.8.7z"/>
    <path d="M9.8 15.5c-.4 0-.8-.3-.8-.8v-6c0-.4.3-.7.8-.7s.8.3.8.8v6c-.1.4-.4.7-.8.7z"/>
    <path d="M13.8 15.5c-.4 0-.8-.3-.8-.8v-10c0-.4.3-.7.8-.7s.8.3.8.8v10c-.1.4-.4.7-.8.7z"/>
</symbol><symbol id="icon-sticker" viewBox="0 0 20.5 20.5">
    <path d="M17.2 20.5H3.3c-1.6 0-2.8-1.3-2.8-2.8V6.8C.5 5.3 1.8 4 3.3 4c.4 0 .8.3.8.8s-.4.7-.8.7c-.7 0-1.3.6-1.3 1.3v10.9c0 .7.6 1.3 1.3 1.3h13.9c.7 0 1.3-.6 1.3-1.3V6.8c0-.7-.6-1.3-1.3-1.3-.4 0-.8-.3-.8-.8s.4-.7.8-.7C18.7 4 20 5.3 20 6.8v10.9c0 1.5-1.3 2.8-2.8 2.8z"/>
    <path d="M7.9 5.5H3.3c-.4 0-.8-.3-.8-.8s.4-.7.8-.7h4.6c.4 0 .8.3.8.8s-.4.7-.8.7z"/>
    <path d="M12.3 7.5h-4c-.8 0-1.5-.5-1.7-1.2-.2-.7 0-1.5.6-2l1-.8-.5-.8c-.4-.5-.4-1.2-.1-1.8.3-.5.9-.9 1.5-.9h2.3c.6 0 1.2.4 1.5.9.3.6.3 1.3-.1 1.8l-.6.9 1 .8c.6.5.9 1.2.6 2-.1.6-.8 1.1-1.5 1.1zm-3.2-6c-.1 0-.2.1-.2.1s-.1.1 0 .3l.7 1c.4.6.3 1.3-.3 1.7l-1.2 1c-.1 0-.1.2-.1.2 0 .1.1.2.3.2h4c.1 0 .2-.1.2-.2s0-.2-.1-.3l-1.2-.9c-.5-.4-.7-1.1-.3-1.7l.7-1.1c.1-.1 0-.2 0-.3s-.1-.1-.2-.1H9.1zM8.9 4zm-.5-.6z"/>
    <path d="M10.3 9.5c-.4 0-.8-.3-.8-.8v-2c0-.4.3-.7.8-.7s.7.3.7.8v2c0 .4-.3.7-.7.7z"/>
    <path d="M15.3 12.5h-10c-.4 0-.8-.3-.8-.8s.3-.7.8-.7h10c.4 0 .8.3.8.8s-.4.7-.8.7z"/>
    <path d="M15.3 16.5h-10c-.4 0-.8-.3-.8-.8s.3-.7.8-.7h10c.4 0 .8.3.8.8s-.4.7-.8.7z"/>
    <path d="M17.2 5.5h-4.6c-.4 0-.8-.3-.8-.8s.4-.7.8-.7h4.6c.4 0 .8.3.8.8s-.4.7-.8.7z"/>
</symbol><symbol id="icon-user-circle" viewBox="0 0 25.5 25.5">
    <path d="M12.8 25.5C5.7 25.5 0 19.8 0 12.8S5.7 0 12.8 0s12.8 5.7 12.8 12.8-5.8 12.7-12.8 12.7zm0-24c-6.2 0-11.3 5-11.3 11.3S6.5 24 12.8 24 24 19 24 12.8 19 1.5 12.8 1.5z"/>
    <path d="M20.3 22.6c-.4 0-.8-.3-.8-.8 0-2.4-3-4.3-6.6-4.3s-6.6 1.9-6.6 4.3c0 .4-.3.8-.8.8s-.8-.3-.8-.8c0-3.2 3.7-5.8 8.2-5.8s8.2 2.6 8.2 5.8c0 .5-.4.8-.8.8z"/>
    <path d="M12.8 14.8c-2.6 0-4.8-2.1-4.8-4.7s2.1-4.8 4.8-4.8 4.8 2.1 4.8 4.8c-.1 2.6-2.2 4.7-4.8 4.7zm0-8c-1.8 0-3.3 1.5-3.3 3.3s1.5 3.2 3.3 3.2 3.3-1.5 3.3-3.2-1.6-3.3-3.3-3.3z"/>
</symbol><symbol id="icon-user" viewBox="0 0 21.5 21.5">
    <path d="M16.8 21.5h-12c-1.5 0-2.8-1.2-2.8-2.8v-13C2 4.2 3.2 3 4.7 3h4c.4 0 .8.3.8.8s-.3.7-.8.7h-4c-.7 0-1.3.6-1.3 1.3v13c0 .7.6 1.3 1.3 1.3h12c.7 0 1.3-.6 1.3-1.3v-13c0-.7-.6-1.3-1.3-1.3h-4c-.4 0-.8-.3-.8-.8s.4-.7.9-.7h4c1.5 0 2.8 1.2 2.8 2.8v13c-.1 1.5-1.3 2.7-2.8 2.7z"/>
    <path d="M11.8 6.5h-2c-1 0-1.8-.8-1.8-1.7v-3C8 .8 8.8 0 9.7 0h2c1 0 1.8.8 1.8 1.8v3c0 .9-.8 1.7-1.7 1.7zm-2.1-5c-.1 0-.3.1-.3.3v3c.1.1.2.2.3.2h2c.2 0 .3-.1.3-.2v-3c0-.1-.1-.3-.3-.3h-2z"/>
    <path d="M10.8 13.1c-1.5 0-2.8-1.2-2.8-2.7 0-1.5 1.2-2.8 2.8-2.8s2.8 1.2 2.8 2.8c-.1 1.4-1.3 2.7-2.8 2.7zm0-4c-.7 0-1.3.6-1.3 1.3 0 .7.6 1.2 1.3 1.2S12 11 12 10.3c0-.6-.6-1.2-1.2-1.2z"/>
    <path d="M14.8 18.5c-.4 0-.8-.3-.8-.8 0-1.2-1-2.3-2.3-2.3h-2c-1.2 0-2.3 1-2.3 2.3 0 .4-.3.8-.8.8s-.6-.3-.6-.7C6 15.7 7.7 14 9.7 14h2c2.1 0 3.8 1.7 3.8 3.8 0 .4-.3.7-.7.7z"/>
</symbol><symbol id="icon-wallet" viewBox="0 0 26.9 26.9">
    <path d="M21.9 26.2H3.6c-2 0-3.6-1.6-3.6-3.6v-19c0-.4.3-.8.8-.8s.8.3.8.8v19.1c0 1.1.9 2.1 2.1 2.1h18.4c1.1 0 2.1-.9 2.1-2.1 0-.4.3-.8.8-.8s.8.3.8.8c-.3 1.9-1.9 3.5-3.9 3.5z"/>
    <path d="M24.7 9.3c-.4 0-.8-.3-.8-.8 0-1.1-.9-2.1-2.1-2.1H2.9C1.3 6.4 0 5.2 0 3.6S1.3.7 2.9.7h17.6c.4 0 .8.3.8.8s-.3.7-.8.7H2.9c-.8 0-1.4.6-1.4 1.4S2.1 5 2.9 5H22c2 0 3.6 1.6 3.6 3.6-.1.3-.4.7-.9.7z"/>
    <path d="M24.7 13.5c-.4 0-.8-.3-.8-.8V8.5c0-.4.3-.8.8-.8s.8.3.8.8v4.2c0 .5-.3.8-.8.8z"/>
    <path d="M24.7 23.4c-.4 0-.8-.3-.8-.8v-4.2c0-.4.3-.8.8-.8s.8.3.8.8v4.2c0 .4-.3.8-.8.8z"/>
    <path d="M25.2 19.1h-4.1c-1.5 0-2.8-1.2-2.8-2.8v-1.6c0-1.5 1.2-2.8 2.8-2.8h4.1c1 0 1.8.8 1.8 1.8v3.6c-.1 1.1-.9 1.8-1.8 1.8zm-4.1-5.6c-.7 0-1.3.6-1.3 1.3v1.6c0 .7.6 1.3 1.3 1.3h4.1c.1 0 .3-.1.3-.3v-3.6c0-.1-.1-.3-.3-.3h-4.1z"/>
</symbol><symbol id="icon-widgets" viewBox="0 0 19.5 19.5">
    <path d="M16.8 19.5h-14c-1.5 0-2.8-1.2-2.8-2.8v-14C0 1.2 1.2 0 2.8 0h14c1.5 0 2.8 1.2 2.8 2.8v14c-.1 1.5-1.3 2.7-2.8 2.7zm-14-18c-.7 0-1.3.6-1.3 1.3v14c0 .7.6 1.3 1.3 1.3h14c.7 0 1.3-.6 1.3-1.3v-14c0-.7-.6-1.3-1.3-1.3h-14z"/>
    <path d="M9.8 19.5c-.4 0-.8-.3-.8-.8V.7c0-.3.3-.7.8-.7s.8.3.8.8v18c-.1.4-.4.7-.8.7z"/>
    <path d="M18.7 8.7h-9c-.4 0-.7-.3-.7-.7s.3-.8.8-.8h9c.4 0 .8.3.8.8s-.4.7-.9.7z"/>
    <path d="M9.8 13.2h-9c-.4 0-.8-.3-.8-.8s.3-.8.8-.8h9c.4 0 .8.3.8.8s-.4.8-.8.8z"/>
</symbol></svg>